P2
# gradiente horizontal 89x89
89 89
255
0 2 5 8 11 14 17 20 23 26 28 31 34 37 40 43 46 49 52 55 57 60 63 66 69 72 75 78 81 84 86 89 92 95 98 101 104 107 110 113 115 118 121 124 127 130 133 136 139 141 144 147 150 153 156 159 162 165 168 170 173 176 179 182 185 188 191 194 197 199 202 205 208 211 214 217 220 223 226 228 231 234 237 240 243 246 249 252 255
0 2 5 8 11 14 17 20 23 26 28 31 34 37 40 43 46 49 52 55 57 60 63 66 69 72 75 78 81 84 86 89 92 95 98 101 104 107 110 113 115 118 121 124 127 130 133 136 139 141 144 147 150 153 156 159 162 165 168 170 173 176 179 182 185 188 191 194 197 199 202 205 208 211 214 217 220 223 226 228 231 234 237 240 243 246 249 252 255
0 2 5 8 11 14 17 20 23 26 28 31 34 37 40 43 46 49 52 55 57 60 63 66 69 72 75 78 81 84 86 89 92 95 98 101 104 107 110 113 115 118 121 124 127 130 133 136 139 141 144 147 150 153 156 159 162 165 168 170 173 176 179 182 185 188 191 194 197 199 202 205 208 211 214 217 220 223 226 228 231 234 237 240 243 246 249 252 255
0 2 5 8 11 14 17 20 23 26 28 31 34 37 40 43 46 49 52 55 57 60 63 66 69 72 75 78 81 84 86 89 92 95 98 101 104 107 110 113 115 118 121 124 127 130 133 136 139 141 144 147 150 153 156 159 162 165 168 170 173 176 179 182 185 188 191 194 197 199 202 205 208 211 214 217 220 223 226 228 231 234 237 240 243 246 249 252 255
0 2 5 8 11 14 17 20 23 26 28 31 34 37 40 43 46 49 52 55 57 60 63 66 69 72 75 78 81 84 86 89 92 95 98 101 104 107 110 113 115 118 121 124 127 130 133 136 139 141 144 147 150 153 156 159 162 165 168 170 173 176 179 182 185 188 191 194 197 199 202 205 208 211 214 217 220 223 226 228 231 234 237 240 243 246 249 252 255
0 2 5 8 11 14 17 20 23 26 28 31 34 37 40 43 46 49 52 55 57 60 63 66 69 72 75 78 81 84 86 89 92 95 98 101 104 107 110 113 115 118 121 124 127 130 133 136 139 141 144 147 150 153 156 159 162 165 168 170 173 176 179 182 185 188 191 194 197 199 202 205 208 211 214 217 220 223 226 228 231 234 237 240 243 246 249 252 255
0 2 5 8 11 14 17 20 23 26 28 31 34 37 40 43 46 49 52 55 57 60 63 66 69 72 75 78 81 84 86 89 92 95 98 101 104 107 110 113 115 118 121 124 127 130 133 136 139 141 144 147 150 153 156 159 162 165 168 170 173 176 179 182 185 188 191 194 197 199 202 205 208 211 214 217 220 223 226 228 231 234 237 240 243 246 249 252 255
0 2 5 8 11 14 17 20 23 26 28 31 34 37 40 43 46 49 52 55 57 60 63 66 69 72 75 78 81 84 86 89 92 95 98 101 104 107 110 113 115 118 121 124 127 130 133 136 139 141 144 147 150 153 156 159 162 165 168 170 173 176 179 182 185 188 191 194 197 199 202 205 208 211 214 217 220 223 226 228 231 234 237 240 243 246 249 252 255
0 2 5 8 11 14 17 20 23 26 28 31 34 37 40 43 46 49 52 55 57 60 63 66 69 72 75 78 81 84 86 89 92 95 98 101 104 107 110 113 115 118 121 124 127 130 133 136 139 141 144 147 150 153 156 159 162 165 168 170 173 176 179 182 185 188 191 194 197 199 202 205 208 211 214 217 220 223 226 228 231 234 237 240 243 246 249 252 255
0 2 5 8 11 14 17 20 23 26 28 31 34 37 40 43 46 49 52 55 57 60 63 66 69 72 75 78 81 84 86 89 92 95 98 101 104 107 110 113 115 118 121 124 127 130 133 136 139 141 144 147 150 153 156 159 162 165 168 170 173 176 179 182 185 188 191 194 197 199 202 205 208 211 214 217 220 223 226 228 231 234 237 240 243 246 249 252 255
0 2 5 8 11 14 17 20 23 26 28 31 34 37 40 43 46 49 52 55 57 60 63 66 69 72 75 78 81 84 86 89 92 95 98 101 104 107 110 113 115 118 121 124 127 130 133 136 139 141 144 147 150 153 156 159 162 165 168 170 173 176 179 182 185 188 191 194 197 199 202 205 208 211 214 217 220 223 226 228 231 234 237 240 243 246 249 252 255
0 2 5 8 11 14 17 20 23 26 28 31 34 37 40 43 46 49 52 55 57 60 63 66 69 72 75 78 81 84 86 89 92 95 98 101 104 107 110 113 115 118 121 124 127 130 133 136 139 141 144 147 150 153 156 159 162 165 168 170 173 176 179 182 185 188 191 194 197 199 202 205 208 211 214 217 220 223 226 228 231 234 237 240 243 246 249 252 255
0 2 5 8 11 14 17 20 23 26 28 31 34 37 40 43 46 49 52 55 57 60 63 66 69 72 75 78 81 84 86 89 92 95 98 101 104 107 110 113 115 118 121 124 127 130 133 136 139 141 144 147 150 153 156 159 162 165 168 170 173 176 179 182 185 188 191 194 197 199 202 205 208 211 214 217 220 223 226 228 231 234 237 240 243 246 249 252 255
0 2 5 8 11 14 17 20 23 26 28 31 34 37 40 43 46 49 52 55 57 60 63 66 69 72 75 78 81 84 86 89 92 95 98 101 104 107 110 113 115 118 121 124 127 130 133 136 139 141 144 147 150 153 156 159 162 165 168 170 173 176 179 182 185 188 191 194 197 199 202 205 208 211 214 217 220 223 226 228 231 234 237 240 243 246 249 252 255
0 2 5 8 11 14 17 20 23 26 28 31 34 37 40 43 46 49 52 55 57 60 63 66 69 72 75 78 81 84 86 89 92 95 98 101 104 107 110 113 115 118 121 124 127 130 133 136 139 141 144 147 150 153 156 159 162 165 168 170 173 176 179 182 185 188 191 194 197 199 202 205 208 211 214 217 220 223 226 228 231 234 237 240 243 246 249 252 255
0 2 5 8 11 14 17 20 23 26 28 31 34 37 40 43 46 49 52 55 57 60 63 66 69 72 75 78 81 84 86 89 92 95 98 101 104 107 110 113 115 118 121 124 127 130 133 136 139 141 144 147 150 153 156 159 162 165 168 170 173 176 179 182 185 188 191 194 197 199 202 205 208 211 214 217 220 223 226 228 231 234 237 240 243 246 249 252 255
0 2 5 8 11 14 17 20 23 26 28 31 34 37 40 43 46 49 52 55 57 60 63 66 69 72 75 78 81 84 86 89 92 95 98 101 104 107 110 113 115 118 121 124 127 130 133 136 139 141 144 147 150 153 156 159 162 165 168 170 173 176 179 182 185 188 191 194 197 199 202 205 208 211 214 217 220 223 226 228 231 234 237 240 243 246 249 252 255
0 2 5 8 11 14 17 20 23 26 28 31 34 37 40 43 46 49 52 55 57 60 63 66 69 72 75 78 81 84 86 89 92 95 98 101 104 107 110 113 115 118 121 124 127 130 133 136 139 141 144 147 150 153 156 159 162 165 168 170 173 176 179 182 185 188 191 194 197 199 202 205 208 211 214 217 220 223 226 228 231 234 237 240 243 246 249 252 255
0 2 5 8 11 14 17 20 23 26 28 31 34 37 40 43 46 49 52 55 57 60 63 66 69 72 75 78 81 84 86 89 92 95 98 101 104 107 110 113 115 118 121 124 127 130 133 136 139 141 144 147 150 153 156 159 162 165 168 170 173 176 179 182 185 188 191 194 197 199 202 205 208 211 214 217 220 223 226 228 231 234 237 240 243 246 249 252 255
0 2 5 8 11 14 17 20 23 26 28 31 34 37 40 43 46 49 52 55 57 60 63 66 69 72 75 78 81 84 86 89 92 95 98 101 104 107 110 113 115 118 121 124 127 130 133 136 139 141 144 147 150 153 156 159 162 165 168 170 173 176 179 182 185 188 191 194 197 199 202 205 208 211 214 217 220 223 226 228 231 234 237 240 243 246 249 252 255
0 2 5 8 11 14 17 20 23 26 28 31 34 37 40 43 46 49 52 55 57 60 63 66 69 72 75 78 81 84 86 89 92 95 98 101 104 107 110 113 115 118 121 124 127 130 133 136 139 141 144 147 150 153 156 159 162 165 168 170 173 176 179 182 185 188 191 194 197 199 202 205 208 211 214 217 220 223 226 228 231 234 237 240 243 246 249 252 255
0 2 5 8 11 14 17 20 23 26 28 31 34 37 40 43 46 49 52 55 57 60 63 66 69 72 75 78 81 84 86 89 92 95 98 101 104 107 110 113 115 118 121 124 127 130 133 136 139 141 144 147 150 153 156 159 162 165 168 170 173 176 179 182 185 188 191 194 197 199 202 205 208 211 214 217 220 223 226 228 231 234 237 240 243 246 249 252 255
0 2 5 8 11 14 17 20 23 26 28 31 34 37 40 43 46 49 52 55 57 60 63 66 69 72 75 78 81 84 86 89 92 95 98 101 104 107 110 113 115 118 121 124 127 130 133 136 139 141 144 147 150 153 156 159 162 165 168 170 173 176 179 182 185 188 191 194 197 199 202 205 208 211 214 217 220 223 226 228 231 234 237 240 243 246 249 252 255
0 2 5 8 11 14 17 20 23 26 28 31 34 37 40 43 46 49 52 55 57 60 63 66 69 72 75 78 81 84 86 89 92 95 98 101 104 107 110 113 115 118 121 124 127 130 133 136 139 141 144 147 150 153 156 159 162 165 168 170 173 176 179 182 185 188 191 194 197 199 202 205 208 211 214 217 220 223 226 228 231 234 237 240 243 246 249 252 255
0 2 5 8 11 14 17 20 23 26 28 31 34 37 40 43 46 49 52 55 57 60 63 66 69 72 75 78 81 84 86 89 92 95 98 101 104 107 110 113 115 118 121 124 127 130 133 136 139 141 144 147 150 153 156 159 162 165 168 170 173 176 179 182 185 188 191 194 197 199 202 205 208 211 214 217 220 223 226 228 231 234 237 240 243 246 249 252 255
0 2 5 8 11 14 17 20 23 26 28 31 34 37 40 43 46 49 52 55 57 60 63 66 69 72 75 78 81 84 86 89 92 95 98 101 104 107 110 113 115 118 121 124 127 130 133 136 139 141 144 147 150 153 156 159 162 165 168 170 173 176 179 182 185 188 191 194 197 199 202 205 208 211 214 217 220 223 226 228 231 234 237 240 243 246 249 252 255
0 2 5 8 11 14 17 20 23 26 28 31 34 37 40 43 46 49 52 55 57 60 63 66 69 72 75 78 81 84 86 89 92 95 98 101 104 107 110 113 115 118 121 124 127 130 133 136 139 141 144 147 150 153 156 159 162 165 168 170 173 176 179 182 185 188 191 194 197 199 202 205 208 211 214 217 220 223 226 228 231 234 237 240 243 246 249 252 255
0 2 5 8 11 14 17 20 23 26 28 31 34 37 40 43 46 49 52 55 57 60 63 66 69 72 75 78 81 84 86 89 92 95 98 101 104 107 110 113 115 118 121 124 127 130 133 136 139 141 144 147 150 153 156 159 162 165 168 170 173 176 179 182 185 188 191 194 197 199 202 205 208 211 214 217 220 223 226 228 231 234 237 240 243 246 249 252 255
0 2 5 8 11 14 17 20 23 26 28 31 34 37 40 43 46 49 52 55 57 60 63 66 69 72 75 78 81 84 86 89 92 95 98 101 104 107 110 113 115 118 121 124 127 130 133 136 139 141 144 147 150 153 156 159 162 165 168 170 173 176 179 182 185 188 191 194 197 199 202 205 208 211 214 217 220 223 226 228 231 234 237 240 243 246 249 252 255
0 2 5 8 11 14 17 20 23 26 28 31 34 37 40 43 46 49 52 55 57 60 63 66 69 72 75 78 81 84 86 89 92 95 98 101 104 107 110 113 115 118 121 124 127 130 133 136 139 141 144 147 150 153 156 159 162 165 168 170 173 176 179 182 185 188 191 194 197 199 202 205 208 211 214 217 220 223 226 228 231 234 237 240 243 246 249 252 255
0 2 5 8 11 14 17 20 23 26 28 31 34 37 40 43 46 49 52 55 57 60 63 66 69 72 75 78 81 84 86 89 92 95 98 101 104 107 110 113 115 118 121 124 127 130 133 136 139 141 144 147 150 153 156 159 162 165 168 170 173 176 179 182 185 188 191 194 197 199 202 205 208 211 214 217 220 223 226 228 231 234 237 240 243 246 249 252 255
0 2 5 8 11 14 17 20 23 26 28 31 34 37 40 43 46 49 52 55 57 60 63 66 69 72 75 78 81 84 86 89 92 95 98 101 104 107 110 113 115 118 121 124 127 130 133 136 139 141 144 147 150 153 156 159 162 165 168 170 173 176 179 182 185 188 191 194 197 199 202 205 208 211 214 217 220 223 226 228 231 234 237 240 243 246 249 252 255
0 2 5 8 11 14 17 20 23 26 28 31 34 37 40 43 46 49 52 55 57 60 63 66 69 72 75 78 81 84 86 89 92 95 98 101 104 107 110 113 115 118 121 124 127 130 133 136 139 141 144 147 150 153 156 159 162 165 168 170 173 176 179 182 185 188 191 194 197 199 202 205 208 211 214 217 220 223 226 228 231 234 237 240 243 246 249 252 255
0 2 5 8 11 14 17 20 23 26 28 31 34 37 40 43 46 49 52 55 57 60 63 66 69 72 75 78 81 84 86 89 92 95 98 101 104 107 110 113 115 118 121 124 127 130 133 136 139 141 144 147 150 153 156 159 162 165 168 170 173 176 179 182 185 188 191 194 197 199 202 205 208 211 214 217 220 223 226 228 231 234 237 240 243 246 249 252 255
0 2 5 8 11 14 17 20 23 26 28 31 34 37 40 43 46 49 52 55 57 60 63 66 69 72 75 78 81 84 86 89 92 95 98 101 104 107 110 113 115 118 121 124 127 130 133 136 139 141 144 147 150 153 156 159 162 165 168 170 173 176 179 182 185 188 191 194 197 199 202 205 208 211 214 217 220 223 226 228 231 234 237 240 243 246 249 252 255
0 2 5 8 11 14 17 20 23 26 28 31 34 37 40 43 46 49 52 55 57 60 63 66 69 72 75 78 81 84 86 89 92 95 98 101 104 107 110 113 115 118 121 124 127 130 133 136 139 141 144 147 150 153 156 159 162 165 168 170 173 176 179 182 185 188 191 194 197 199 202 205 208 211 214 217 220 223 226 228 231 234 237 240 243 246 249 252 255
0 2 5 8 11 14 17 20 23 26 28 31 34 37 40 43 46 49 52 55 57 60 63 66 69 72 75 78 81 84 86 89 92 95 98 101 104 107 110 113 115 118 121 124 127 130 133 136 139 141 144 147 150 153 156 159 162 165 168 170 173 176 179 182 185 188 191 194 197 199 202 205 208 211 214 217 220 223 226 228 231 234 237 240 243 246 249 252 255
0 2 5 8 11 14 17 20 23 26 28 31 34 37 40 43 46 49 52 55 57 60 63 66 69 72 75 78 81 84 86 89 92 95 98 101 104 107 110 113 115 118 121 124 127 130 133 136 139 141 144 147 150 153 156 159 162 165 168 170 173 176 179 182 185 188 191 194 197 199 202 205 208 211 214 217 220 223 226 228 231 234 237 240 243 246 249 252 255
0 2 5 8 11 14 17 20 23 26 28 31 34 37 40 43 46 49 52 55 57 60 63 66 69 72 75 78 81 84 86 89 92 95 98 101 104 107 110 113 115 118 121 124 127 130 133 136 139 141 144 147 150 153 156 159 162 165 168 170 173 176 179 182 185 188 191 194 197 199 202 205 208 211 214 217 220 223 226 228 231 234 237 240 243 246 249 252 255
0 2 5 8 11 14 17 20 23 26 28 31 34 37 40 43 46 49 52 55 57 60 63 66 69 72 75 78 81 84 86 89 92 95 98 101 104 107 110 113 115 118 121 124 127 130 133 136 139 141 144 147 150 153 156 159 162 165 168 170 173 176 179 182 185 188 191 194 197 199 202 205 208 211 214 217 220 223 226 228 231 234 237 240 243 246 249 252 255
0 2 5 8 11 14 17 20 23 26 28 31 34 37 40 43 46 49 52 55 57 60 63 66 69 72 75 78 81 84 86 89 92 95 98 101 104 107 110 113 115 118 121 124 127 130 133 136 139 141 144 147 150 153 156 159 162 165 168 170 173 176 179 182 185 188 191 194 197 199 202 205 208 211 214 217 220 223 226 228 231 234 237 240 243 246 249 252 255
0 2 5 8 11 14 17 20 23 26 28 31 34 37 40 43 46 49 52 55 57 60 63 66 69 72 75 78 81 84 86 89 92 95 98 101 104 107 110 113 115 118 121 124 127 130 133 136 139 141 144 147 150 153 156 159 162 165 168 170 173 176 179 182 185 188 191 194 197 199 202 205 208 211 214 217 220 223 226 228 231 234 237 240 243 246 249 252 255
0 2 5 8 11 14 17 20 23 26 28 31 34 37 40 43 46 49 52 55 57 60 63 66 69 72 75 78 81 84 86 89 92 95 98 101 104 107 110 113 115 118 121 124 127 130 133 136 139 141 144 147 150 153 156 159 162 165 168 170 173 176 179 182 185 188 191 194 197 199 202 205 208 211 214 217 220 223 226 228 231 234 237 240 243 246 249 252 255
0 2 5 8 11 14 17 20 23 26 28 31 34 37 40 43 46 49 52 55 57 60 63 66 69 72 75 78 81 84 86 89 92 95 98 101 104 107 110 113 115 118 121 124 127 130 133 136 139 141 144 147 150 153 156 159 162 165 168 170 173 176 179 182 185 188 191 194 197 199 202 205 208 211 214 217 220 223 226 228 231 234 237 240 243 246 249 252 255
0 2 5 8 11 14 17 20 23 26 28 31 34 37 40 43 46 49 52 55 57 60 63 66 69 72 75 78 81 84 86 89 92 95 98 101 104 107 110 113 115 118 121 124 127 130 133 136 139 141 144 147 150 153 156 159 162 165 168 170 173 176 179 182 185 188 191 194 197 199 202 205 208 211 214 217 220 223 226 228 231 234 237 240 243 246 249 252 255
0 2 5 8 11 14 17 20 23 26 28 31 34 37 40 43 46 49 52 55 57 60 63 66 69 72 75 78 81 84 86 89 92 95 98 101 104 107 110 113 115 118 121 124 127 130 133 136 139 141 144 147 150 153 156 159 162 165 168 170 173 176 179 182 185 188 191 194 197 199 202 205 208 211 214 217 220 223 226 228 231 234 237 240 243 246 249 252 255
0 2 5 8 11 14 17 20 23 26 28 31 34 37 40 43 46 49 52 55 57 60 63 66 69 72 75 78 81 84 86 89 92 95 98 101 104 107 110 113 115 118 121 124 127 130 133 136 139 141 144 147 150 153 156 159 162 165 168 170 173 176 179 182 185 188 191 194 197 199 202 205 208 211 214 217 220 223 226 228 231 234 237 240 243 246 249 252 255
0 2 5 8 11 14 17 20 23 26 28 31 34 37 40 43 46 49 52 55 57 60 63 66 69 72 75 78 81 84 86 89 92 95 98 101 104 107 110 113 115 118 121 124 127 130 133 136 139 141 144 147 150 153 156 159 162 165 168 170 173 176 179 182 185 188 191 194 197 199 202 205 208 211 214 217 220 223 226 228 231 234 237 240 243 246 249 252 255
0 2 5 8 11 14 17 20 23 26 28 31 34 37 40 43 46 49 52 55 57 60 63 66 69 72 75 78 81 84 86 89 92 95 98 101 104 107 110 113 115 118 121 124 127 130 133 136 139 141 144 147 150 153 156 159 162 165 168 170 173 176 179 182 185 188 191 194 197 199 202 205 208 211 214 217 220 223 226 228 231 234 237 240 243 246 249 252 255
0 2 5 8 11 14 17 20 23 26 28 31 34 37 40 43 46 49 52 55 57 60 63 66 69 72 75 78 81 84 86 89 92 95 98 101 104 107 110 113 115 118 121 124 127 130 133 136 139 141 144 147 150 153 156 159 162 165 168 170 173 176 179 182 185 188 191 194 197 199 202 205 208 211 214 217 220 223 226 228 231 234 237 240 243 246 249 252 255
0 2 5 8 11 14 17 20 23 26 28 31 34 37 40 43 46 49 52 55 57 60 63 66 69 72 75 78 81 84 86 89 92 95 98 101 104 107 110 113 115 118 121 124 127 130 133 136 139 141 144 147 150 153 156 159 162 165 168 170 173 176 179 182 185 188 191 194 197 199 202 205 208 211 214 217 220 223 226 228 231 234 237 240 243 246 249 252 255
0 2 5 8 11 14 17 20 23 26 28 31 34 37 40 43 46 49 52 55 57 60 63 66 69 72 75 78 81 84 86 89 92 95 98 101 104 107 110 113 115 118 121 124 127 130 133 136 139 141 144 147 150 153 156 159 162 165 168 170 173 176 179 182 185 188 191 194 197 199 202 205 208 211 214 217 220 223 226 228 231 234 237 240 243 246 249 252 255
0 2 5 8 11 14 17 20 23 26 28 31 34 37 40 43 46 49 52 55 57 60 63 66 69 72 75 78 81 84 86 89 92 95 98 101 104 107 110 113 115 118 121 124 127 130 133 136 139 141 144 147 150 153 156 159 162 165 168 170 173 176 179 182 185 188 191 194 197 199 202 205 208 211 214 217 220 223 226 228 231 234 237 240 243 246 249 252 255
0 2 5 8 11 14 17 20 23 26 28 31 34 37 40 43 46 49 52 55 57 60 63 66 69 72 75 78 81 84 86 89 92 95 98 101 104 107 110 113 115 118 121 124 127 130 133 136 139 141 144 147 150 153 156 159 162 165 168 170 173 176 179 182 185 188 191 194 197 199 202 205 208 211 214 217 220 223 226 228 231 234 237 240 243 246 249 252 255
0 2 5 8 11 14 17 20 23 26 28 31 34 37 40 43 46 49 52 55 57 60 63 66 69 72 75 78 81 84 86 89 92 95 98 101 104 107 110 113 115 118 121 124 127 130 133 136 139 141 144 147 150 153 156 159 162 165 168 170 173 176 179 182 185 188 191 194 197 199 202 205 208 211 214 217 220 223 226 228 231 234 237 240 243 246 249 252 255
0 2 5 8 11 14 17 20 23 26 28 31 34 37 40 43 46 49 52 55 57 60 63 66 69 72 75 78 81 84 86 89 92 95 98 101 104 107 110 113 115 118 121 124 127 130 133 136 139 141 144 147 150 153 156 159 162 165 168 170 173 176 179 182 185 188 191 194 197 199 202 205 208 211 214 217 220 223 226 228 231 234 237 240 243 246 249 252 255
0 2 5 8 11 14 17 20 23 26 28 31 34 37 40 43 46 49 52 55 57 60 63 66 69 72 75 78 81 84 86 89 92 95 98 101 104 107 110 113 115 118 121 124 127 130 133 136 139 141 144 147 150 153 156 159 162 165 168 170 173 176 179 182 185 188 191 194 197 199 202 205 208 211 214 217 220 223 226 228 231 234 237 240 243 246 249 252 255
0 2 5 8 11 14 17 20 23 26 28 31 34 37 40 43 46 49 52 55 57 60 63 66 69 72 75 78 81 84 86 89 92 95 98 101 104 107 110 113 115 118 121 124 127 130 133 136 139 141 144 147 150 153 156 159 162 165 168 170 173 176 179 182 185 188 191 194 197 199 202 205 208 211 214 217 220 223 226 228 231 234 237 240 243 246 249 252 255
0 2 5 8 11 14 17 20 23 26 28 31 34 37 40 43 46 49 52 55 57 60 63 66 69 72 75 78 81 84 86 89 92 95 98 101 104 107 110 113 115 118 121 124 127 130 133 136 139 141 144 147 150 153 156 159 162 165 168 170 173 176 179 182 185 188 191 194 197 199 202 205 208 211 214 217 220 223 226 228 231 234 237 240 243 246 249 252 255
0 2 5 8 11 14 17 20 23 26 28 31 34 37 40 43 46 49 52 55 57 60 63 66 69 72 75 78 81 84 86 89 92 95 98 101 104 107 110 113 115 118 121 124 127 130 133 136 139 141 144 147 150 153 156 159 162 165 168 170 173 176 179 182 185 188 191 194 197 199 202 205 208 211 214 217 220 223 226 228 231 234 237 240 243 246 249 252 255
0 2 5 8 11 14 17 20 23 26 28 31 34 37 40 43 46 49 52 55 57 60 63 66 69 72 75 78 81 84 86 89 92 95 98 101 104 107 110 113 115 118 121 124 127 130 133 136 139 141 144 147 150 153 156 159 162 165 168 170 173 176 179 182 185 188 191 194 197 199 202 205 208 211 214 217 220 223 226 228 231 234 237 240 243 246 249 252 255
0 2 5 8 11 14 17 20 23 26 28 31 34 37 40 43 46 49 52 55 57 60 63 66 69 72 75 78 81 84 86 89 92 95 98 101 104 107 110 113 115 118 121 124 127 130 133 136 139 141 144 147 150 153 156 159 162 165 168 170 173 176 179 182 185 188 191 194 197 199 202 205 208 211 214 217 220 223 226 228 231 234 237 240 243 246 249 252 255
0 2 5 8 11 14 17 20 23 26 28 31 34 37 40 43 46 49 52 55 57 60 63 66 69 72 75 78 81 84 86 89 92 95 98 101 104 107 110 113 115 118 121 124 127 130 133 136 139 141 144 147 150 153 156 159 162 165 168 170 173 176 179 182 185 188 191 194 197 199 202 205 208 211 214 217 220 223 226 228 231 234 237 240 243 246 249 252 255
0 2 5 8 11 14 17 20 23 26 28 31 34 37 40 43 46 49 52 55 57 60 63 66 69 72 75 78 81 84 86 89 92 95 98 101 104 107 110 113 115 118 121 124 127 130 133 136 139 141 144 147 150 153 156 159 162 165 168 170 173 176 179 182 185 188 191 194 197 199 202 205 208 211 214 217 220 223 226 228 231 234 237 240 243 246 249 252 255
0 2 5 8 11 14 17 20 23 26 28 31 34 37 40 43 46 49 52 55 57 60 63 66 69 72 75 78 81 84 86 89 92 95 98 101 104 107 110 113 115 118 121 124 127 130 133 136 139 141 144 147 150 153 156 159 162 165 168 170 173 176 179 182 185 188 191 194 197 199 202 205 208 211 214 217 220 223 226 228 231 234 237 240 243 246 249 252 255
0 2 5 8 11 14 17 20 23 26 28 31 34 37 40 43 46 49 52 55 57 60 63 66 69 72 75 78 81 84 86 89 92 95 98 101 104 107 110 113 115 118 121 124 127 130 133 136 139 141 144 147 150 153 156 159 162 165 168 170 173 176 179 182 185 188 191 194 197 199 202 205 208 211 214 217 220 223 226 228 231 234 237 240 243 246 249 252 255
0 2 5 8 11 14 17 20 23 26 28 31 34 37 40 43 46 49 52 55 57 60 63 66 69 72 75 78 81 84 86 89 92 95 98 101 104 107 110 113 115 118 121 124 127 130 133 136 139 141 144 147 150 153 156 159 162 165 168 170 173 176 179 182 185 188 191 194 197 199 202 205 208 211 214 217 220 223 226 228 231 234 237 240 243 246 249 252 255
0 2 5 8 11 14 17 20 23 26 28 31 34 37 40 43 46 49 52 55 57 60 63 66 69 72 75 78 81 84 86 89 92 95 98 101 104 107 110 113 115 118 121 124 127 130 133 136 139 141 144 147 150 153 156 159 162 165 168 170 173 176 179 182 185 188 191 194 197 199 202 205 208 211 214 217 220 223 226 228 231 234 237 240 243 246 249 252 255
0 2 5 8 11 14 17 20 23 26 28 31 34 37 40 43 46 49 52 55 57 60 63 66 69 72 75 78 81 84 86 89 92 95 98 101 104 107 110 113 115 118 121 124 127 130 133 136 139 141 144 147 150 153 156 159 162 165 168 170 173 176 179 182 185 188 191 194 197 199 202 205 208 211 214 217 220 223 226 228 231 234 237 240 243 246 249 252 255
0 2 5 8 11 14 17 20 23 26 28 31 34 37 40 43 46 49 52 55 57 60 63 66 69 72 75 78 81 84 86 89 92 95 98 101 104 107 110 113 115 118 121 124 127 130 133 136 139 141 144 147 150 153 156 159 162 165 168 170 173 176 179 182 185 188 191 194 197 199 202 205 208 211 214 217 220 223 226 228 231 234 237 240 243 246 249 252 255
0 2 5 8 11 14 17 20 23 26 28 31 34 37 40 43 46 49 52 55 57 60 63 66 69 72 75 78 81 84 86 89 92 95 98 101 104 107 110 113 115 118 121 124 127 130 133 136 139 141 144 147 150 153 156 159 162 165 168 170 173 176 179 182 185 188 191 194 197 199 202 205 208 211 214 217 220 223 226 228 231 234 237 240 243 246 249 252 255
0 2 5 8 11 14 17 20 23 26 28 31 34 37 40 43 46 49 52 55 57 60 63 66 69 72 75 78 81 84 86 89 92 95 98 101 104 107 110 113 115 118 121 124 127 130 133 136 139 141 144 147 150 153 156 159 162 165 168 170 173 176 179 182 185 188 191 194 197 199 202 205 208 211 214 217 220 223 226 228 231 234 237 240 243 246 249 252 255
0 2 5 8 11 14 17 20 23 26 28 31 34 37 40 43 46 49 52 55 57 60 63 66 69 72 75 78 81 84 86 89 92 95 98 101 104 107 110 113 115 118 121 124 127 130 133 136 139 141 144 147 150 153 156 159 162 165 168 170 173 176 179 182 185 188 191 194 197 199 202 205 208 211 214 217 220 223 226 228 231 234 237 240 243 246 249 252 255
0 2 5 8 11 14 17 20 23 26 28 31 34 37 40 43 46 49 52 55 57 60 63 66 69 72 75 78 81 84 86 89 92 95 98 101 104 107 110 113 115 118 121 124 127 130 133 136 139 141 144 147 150 153 156 159 162 165 168 170 173 176 179 182 185 188 191 194 197 199 202 205 208 211 214 217 220 223 226 228 231 234 237 240 243 246 249 252 255
0 2 5 8 11 14 17 20 23 26 28 31 34 37 40 43 46 49 52 55 57 60 63 66 69 72 75 78 81 84 86 89 92 95 98 101 104 107 110 113 115 118 121 124 127 130 133 136 139 141 144 147 150 153 156 159 162 165 168 170 173 176 179 182 185 188 191 194 197 199 202 205 208 211 214 217 220 223 226 228 231 234 237 240 243 246 249 252 255
0 2 5 8 11 14 17 20 23 26 28 31 34 37 40 43 46 49 52 55 57 60 63 66 69 72 75 78 81 84 86 89 92 95 98 101 104 107 110 113 115 118 121 124 127 130 133 136 139 141 144 147 150 153 156 159 162 165 168 170 173 176 179 182 185 188 191 194 197 199 202 205 208 211 214 217 220 223 226 228 231 234 237 240 243 246 249 252 255
0 2 5 8 11 14 17 20 23 26 28 31 34 37 40 43 46 49 52 55 57 60 63 66 69 72 75 78 81 84 86 89 92 95 98 101 104 107 110 113 115 118 121 124 127 130 133 136 139 141 144 147 150 153 156 159 162 165 168 170 173 176 179 182 185 188 191 194 197 199 202 205 208 211 214 217 220 223 226 228 231 234 237 240 243 246 249 252 255
0 2 5 8 11 14 17 20 23 26 28 31 34 37 40 43 46 49 52 55 57 60 63 66 69 72 75 78 81 84 86 89 92 95 98 101 104 107 110 113 115 118 121 124 127 130 133 136 139 141 144 147 150 153 156 159 162 165 168 170 173 176 179 182 185 188 191 194 197 199 202 205 208 211 214 217 220 223 226 228 231 234 237 240 243 246 249 252 255
0 2 5 8 11 14 17 20 23 26 28 31 34 37 40 43 46 49 52 55 57 60 63 66 69 72 75 78 81 84 86 89 92 95 98 101 104 107 110 113 115 118 121 124 127 130 133 136 139 141 144 147 150 153 156 159 162 165 168 170 173 176 179 182 185 188 191 194 197 199 202 205 208 211 214 217 220 223 226 228 231 234 237 240 243 246 249 252 255
0 2 5 8 11 14 17 20 23 26 28 31 34 37 40 43 46 49 52 55 57 60 63 66 69 72 75 78 81 84 86 89 92 95 98 101 104 107 110 113 115 118 121 124 127 130 133 136 139 141 144 147 150 153 156 159 162 165 168 170 173 176 179 182 185 188 191 194 197 199 202 205 208 211 214 217 220 223 226 228 231 234 237 240 243 246 249 252 255
0 2 5 8 11 14 17 20 23 26 28 31 34 37 40 43 46 49 52 55 57 60 63 66 69 72 75 78 81 84 86 89 92 95 98 101 104 107 110 113 115 118 121 124 127 130 133 136 139 141 144 147 150 153 156 159 162 165 168 170 173 176 179 182 185 188 191 194 197 199 202 205 208 211 214 217 220 223 226 228 231 234 237 240 243 246 249 252 255
0 2 5 8 11 14 17 20 23 26 28 31 34 37 40 43 46 49 52 55 57 60 63 66 69 72 75 78 81 84 86 89 92 95 98 101 104 107 110 113 115 118 121 124 127 130 133 136 139 141 144 147 150 153 156 159 162 165 168 170 173 176 179 182 185 188 191 194 197 199 202 205 208 211 214 217 220 223 226 228 231 234 237 240 243 246 249 252 255
0 2 5 8 11 14 17 20 23 26 28 31 34 37 40 43 46 49 52 55 57 60 63 66 69 72 75 78 81 84 86 89 92 95 98 101 104 107 110 113 115 118 121 124 127 130 133 136 139 141 144 147 150 153 156 159 162 165 168 170 173 176 179 182 185 188 191 194 197 199 202 205 208 211 214 217 220 223 226 228 231 234 237 240 243 246 249 252 255
0 2 5 8 11 14 17 20 23 26 28 31 34 37 40 43 46 49 52 55 57 60 63 66 69 72 75 78 81 84 86 89 92 95 98 101 104 107 110 113 115 118 121 124 127 130 133 136 139 141 144 147 150 153 156 159 162 165 168 170 173 176 179 182 185 188 191 194 197 199 202 205 208 211 214 217 220 223 226 228 231 234 237 240 243 246 249 252 255
0 2 5 8 11 14 17 20 23 26 28 31 34 37 40 43 46 49 52 55 57 60 63 66 69 72 75 78 81 84 86 89 92 95 98 101 104 107 110 113 115 118 121 124 127 130 133 136 139 141 144 147 150 153 156 159 162 165 168 170 173 176 179 182 185 188 191 194 197 199 202 205 208 211 214 217 220 223 226 228 231 234 237 240 243 246 249 252 255
0 2 5 8 11 14 17 20 23 26 28 31 34 37 40 43 46 49 52 55 57 60 63 66 69 72 75 78 81 84 86 89 92 95 98 101 104 107 110 113 115 118 121 124 127 130 133 136 139 141 144 147 150 153 156 159 162 165 168 170 173 176 179 182 185 188 191 194 197 199 202 205 208 211 214 217 220 223 226 228 231 234 237 240 243 246 249 252 255
0 2 5 8 11 14 17 20 23 26 28 31 34 37 40 43 46 49 52 55 57 60 63 66 69 72 75 78 81 84 86 89 92 95 98 101 104 107 110 113 115 118 121 124 127 130 133 136 139 141 144 147 150 153 156 159 162 165 168 170 173 176 179 182 185 188 191 194 197 199 202 205 208 211 214 217 220 223 226 228 231 234 237 240 243 246 249 252 255
0 2 5 8 11 14 17 20 23 26 28 31 34 37 40 43 46 49 52 55 57 60 63 66 69 72 75 78 81 84 86 89 92 95 98 101 104 107 110 113 115 118 121 124 127 130 133 136 139 141 144 147 150 153 156 159 162 165 168 170 173 176 179 182 185 188 191 194 197 199 202 205 208 211 214 217 220 223 226 228 231 234 237 240 243 246 249 252 255
0 2 5 8 11 14 17 20 23 26 28 31 34 37 40 43 46 49 52 55 57 60 63 66 69 72 75 78 81 84 86 89 92 95 98 101 104 107 110 113 115 118 121 124 127 130 133 136 139 141 144 147 150 153 156 159 162 165 168 170 173 176 179 182 185 188 191 194 197 199 202 205 208 211 214 217 220 223 226 228 231 234 237 240 243 246 249 252 255
