P2
# gradiente horizontal 89x89
89 89
255
0 3 6 9 12 14 17 20 23 26 29 32 35 38 41 43 46 49 52 55 58 61 64 67 70 72 75 78 81 84 87 90 93 96 99 101 104 107 110 113 116 119 122 125 128 130 133 136 139 142 145 148 151 154 156 159 162 165 168 171 174 177 180 183 185 188 191 194 197 200 203 206 209 212 214 217 220 223 226 229 232 235 238 241 243 246 249 252 255
0 3 6 9 12 14 17 20 23 26 29 32 35 38 41 43 46 49 52 55 58 61 64 67 70 72 75 78 81 84 87 90 93 96 99 101 104 107 110 113 116 119 122 125 128 130 133 136 139 142 145 148 151 154 156 159 162 165 168 171 174 177 180 183 185 188 191 194 197 200 203 206 209 212 214 217 220 223 226 229 232 235 238 241 243 246 249 252 255
0 3 6 9 12 14 17 20 23 26 29 32 35 38 41 43 46 49 52 55 58 61 64 67 70 72 75 78 81 84 87 90 93 96 99 101 104 107 110 113 116 119 122 125 128 130 133 136 139 142 145 148 151 154 156 159 162 165 168 171 174 177 180 183 185 188 191 194 197 200 203 206 209 212 214 217 220 223 226 229 232 235 238 241 243 246 249 252 255
0 3 6 9 12 14 17 20 23 26 29 32 35 38 41 43 46 49 52 55 58 61 64 67 70 72 75 78 81 84 87 90 93 96 99 101 104 107 110 113 116 119 122 125 128 130 133 136 139 142 145 148 151 154 156 159 162 165 168 171 174 177 180 183 185 188 191 194 197 200 203 206 209 212 214 217 220 223 226 229 232 235 238 241 243 246 249 252 255
0 3 6 9 12 14 17 20 23 26 29 32 35 38 41 43 46 49 52 55 58 61 64 67 70 72 75 78 81 84 87 90 93 96 99 101 104 107 110 113 116 119 122 125 128 130 133 136 139 142 145 148 151 154 156 159 162 165 168 171 174 177 180 183 185 188 191 194 197 200 203 206 209 212 214 217 220 223 226 229 232 235 238 241 243 246 249 252 255
0 3 6 9 12 14 17 20 23 26 29 32 35 38 41 43 46 49 52 55 58 61 64 67 70 72 75 78 81 84 87 90 93 96 99 101 104 107 110 113 116 119 122 125 128 130 133 136 139 142 145 148 151 154 156 159 162 165 168 171 174 177 180 183 185 188 191 194 197 200 203 206 209 212 214 217 220 223 226 229 232 235 238 241 243 246 249 252 255
0 3 6 9 12 14 17 20 23 26 29 32 35 38 41 43 46 49 52 55 58 61 64 67 70 72 75 78 81 84 87 90 93 96 99 101 104 107 110 113 116 119 122 125 128 130 133 136 139 142 145 148 151 154 156 159 162 165 168 171 174 177 180 183 185 188 191 194 197 200 203 206 209 212 214 217 220 223 226 229 232 235 238 241 243 246 249 252 255
0 3 6 9 12 14 17 20 23 26 29 32 35 38 41 43 46 49 52 55 58 61 64 67 70 72 75 78 81 84 87 90 93 96 99 101 104 107 110 113 116 119 122 125 128 130 133 136 139 142 145 148 151 154 156 159 162 165 168 171 174 177 180 183 185 188 191 194 197 200 203 206 209 212 214 217 220 223 226 229 232 235 238 241 243 246 249 252 255
0 3 6 9 12 14 17 20 23 26 29 32 35 38 41 43 46 49 52 55 58 61 64 67 70 72 75 78 81 84 87 90 93 96 99 101 104 107 110 113 116 119 122 125 128 130 133 136 139 142 145 148 151 154 156 159 162 165 168 171 174 177 180 183 185 188 191 194 197 200 203 206 209 212 214 217 220 223 226 229 232 235 238 241 243 246 249 252 255
0 3 6 9 12 14 17 20 23 26 29 32 35 38 41 43 46 49 52 55 58 61 64 67 70 72 75 78 81 84 87 90 93 96 99 101 104 107 110 113 116 119 122 125 128 130 133 136 139 142 145 148 151 154 156 159 162 165 168 171 174 177 180 183 185 188 191 194 197 200 203 206 209 212 214 217 220 223 226 229 232 235 238 241 243 246 249 252 255
0 3 6 9 12 14 17 20 23 26 29 32 35 38 41 43 46 49 52 55 58 61 64 67 70 72 75 78 81 84 87 90 93 96 99 101 104 107 110 113 116 119 122 125 128 130 133 136 139 142 145 148 151 154 156 159 162 165 168 171 174 177 180 183 185 188 191 194 197 200 203 206 209 212 214 217 220 223 226 229 232 235 238 241 243 246 249 252 255
0 3 6 9 12 14 17 20 23 26 29 32 35 38 41 43 46 49 52 55 58 61 64 67 70 72 75 78 81 84 87 90 93 96 99 101 104 107 110 113 116 119 122 125 128 130 133 136 139 142 145 148 151 154 156 159 162 165 168 171 174 177 180 183 185 188 191 194 197 200 203 206 209 212 214 217 220 223 226 229 232 235 238 241 243 246 249 252 255
0 3 6 9 12 14 17 20 23 26 29 32 35 38 41 43 46 49 52 55 58 61 64 67 70 72 75 78 81 84 87 90 93 96 99 101 104 107 110 113 116 119 122 125 128 130 133 136 139 142 145 148 151 154 156 159 162 165 168 171 174 177 180 183 185 188 191 194 197 200 203 206 209 212 214 217 220 223 226 229 232 235 238 241 243 246 249 252 255
0 3 6 9 12 14 17 20 23 26 29 32 35 38 41 43 46 49 52 55 58 61 64 67 70 72 75 78 81 84 87 90 93 96 99 101 104 107 110 113 116 119 122 125 128 130 133 136 139 142 145 148 151 154 156 159 162 165 168 171 174 177 180 183 185 188 191 194 197 200 203 206 209 212 214 217 220 223 226 229 232 235 238 241 243 246 249 252 255
0 3 6 9 12 14 17 20 23 26 29 32 35 38 41 43 46 49 52 55 58 61 64 67 70 72 75 78 81 84 87 90 93 96 99 101 104 107 110 113 116 119 122 125 128 130 133 136 139 142 145 148 151 154 156 159 162 165 168 171 174 177 180 183 185 188 191 194 197 200 203 206 209 212 214 217 220 223 226 229 232 235 238 241 243 246 249 252 255
0 3 6 9 12 14 17 20 23 26 29 32 35 38 41 43 46 49 52 55 58 61 64 67 70 72 75 78 81 84 87 90 93 96 99 101 104 107 110 113 116 119 122 125 128 130 133 136 139 142 145 148 151 154 156 159 162 165 168 171 174 177 180 183 185 188 191 194 197 200 203 206 209 212 214 217 220 223 226 229 232 235 238 241 243 246 249 252 255
0 3 6 9 12 14 17 20 23 26 29 32 35 38 41 43 46 49 52 55 58 61 64 67 70 72 75 78 81 84 87 90 93 96 99 101 104 107 110 113 116 119 122 125 128 130 133 136 139 142 145 148 151 154 156 159 162 165 168 171 174 177 180 183 185 188 191 194 197 200 203 206 209 212 214 217 220 223 226 229 232 235 238 241 243 246 249 252 255
0 3 6 9 12 14 17 20 23 26 29 32 35 38 41 43 46 49 52 55 58 61 64 67 70 72 75 78 81 84 87 90 93 96 99 101 104 107 110 113 116 119 122 125 128 130 133 136 139 142 145 148 151 154 156 159 162 165 168 171 174 177 180 183 185 188 191 194 197 200 203 206 209 212 214 217 220 223 226 229 232 235 238 241 243 246 249 252 255
0 3 6 9 12 14 17 20 23 26 29 32 35 38 41 43 46 49 52 55 58 61 64 67 70 72 75 78 81 84 87 90 93 96 99 101 104 107 110 113 116 119 122 125 128 130 133 136 139 142 145 148 151 154 156 159 162 165 168 171 174 177 180 183 185 188 191 194 197 200 203 206 209 212 214 217 220 223 226 229 232 235 238 241 243 246 249 252 255
0 3 6 9 12 14 17 20 23 26 29 32 35 38 41 43 46 49 52 55 58 61 64 67 70 72 75 78 81 84 87 90 93 96 99 101 104 107 110 113 116 119 122 125 128 130 133 136 139 142 145 148 151 154 156 159 162 165 168 171 174 177 180 183 185 188 191 194 197 200 203 206 209 212 214 217 220 223 226 229 232 235 238 241 243 246 249 252 255
0 3 6 9 12 14 17 20 23 26 29 32 35 38 41 43 46 49 52 55 58 61 64 67 70 72 75 78 81 84 87 90 93 96 99 101 104 107 110 113 116 119 122 125 128 130 133 136 139 142 145 148 151 154 156 159 162 165 168 171 174 177 180 183 185 188 191 194 197 200 203 206 209 212 214 217 220 223 226 229 232 235 238 241 243 246 249 252 255
0 3 6 9 12 14 17 20 23 26 29 32 35 38 41 43 46 49 52 55 58 61 64 67 70 72 75 78 81 84 87 90 93 96 99 101 104 107 110 113 116 119 122 125 128 130 133 136 139 142 145 148 151 154 156 159 162 165 168 171 174 177 180 183 185 188 191 194 197 200 203 206 209 212 214 217 220 223 226 229 232 235 238 241 243 246 249 252 255
0 3 6 9 12 14 17 20 23 26 29 32 35 38 41 43 46 49 52 55 58 61 64 67 70 72 75 78 81 84 87 90 93 96 99 101 104 107 110 113 116 119 122 125 128 130 133 136 139 142 145 148 151 154 156 159 162 165 168 171 174 177 180 183 185 188 191 194 197 200 203 206 209 212 214 217 220 223 226 229 232 235 238 241 243 246 249 252 255
0 3 6 9 12 14 17 20 23 26 29 32 35 38 41 43 46 49 52 55 58 61 64 67 70 72 75 78 81 84 87 90 93 96 99 101 104 107 110 113 116 119 122 125 128 130 133 136 139 142 145 148 151 154 156 159 162 165 168 171 174 177 180 183 185 188 191 194 197 200 203 206 209 212 214 217 220 223 226 229 232 235 238 241 243 246 249 252 255
0 3 6 9 12 14 17 20 23 26 29 32 35 38 41 43 46 49 52 55 58 61 64 67 70 72 75 78 81 84 87 90 93 96 99 101 104 107 110 113 116 119 122 125 128 130 133 136 139 142 145 148 151 154 156 159 162 165 168 171 174 177 180 183 185 188 191 194 197 200 203 206 209 212 214 217 220 223 226 229 232 235 238 241 243 246 249 252 255
0 3 6 9 12 14 17 20 23 26 29 32 35 38 41 43 46 49 52 55 58 61 64 67 70 72 75 78 81 84 87 90 93 96 99 101 104 107 110 113 116 119 122 125 128 130 133 136 139 142 145 148 151 154 156 159 162 165 168 171 174 177 180 183 185 188 191 194 197 200 203 206 209 212 214 217 220 223 226 229 232 235 238 241 243 246 249 252 255
0 3 6 9 12 14 17 20 23 26 29 32 35 38 41 43 46 49 52 55 58 61 64 67 70 72 75 78 81 84 87 90 93 96 99 101 104 107 110 113 116 119 122 125 128 130 133 136 139 142 145 148 151 154 156 159 162 165 168 171 174 177 180 183 185 188 191 194 197 200 203 206 209 212 214 217 220 223 226 229 232 235 238 241 243 246 249 252 255
0 3 6 9 12 14 17 20 23 26 29 32 35 38 41 43 46 49 52 55 58 61 64 67 70 72 75 78 81 84 87 90 93 96 99 101 104 107 110 113 116 119 122 125 128 130 133 136 139 142 145 148 151 154 156 159 162 165 168 171 174 177 180 183 185 188 191 194 197 200 203 206 209 212 214 217 220 223 226 229 232 235 238 241 243 246 249 252 255
0 3 6 9 12 14 17 20 23 26 29 32 35 38 41 43 46 49 52 55 58 61 64 67 70 72 75 78 81 84 87 90 93 96 99 101 104 107 110 113 116 119 122 125 128 130 133 136 139 142 145 148 151 154 156 159 162 165 168 171 174 177 180 183 185 188 191 194 197 200 203 206 209 212 214 217 220 223 226 229 232 235 238 241 243 246 249 252 255
0 3 6 9 12 14 17 20 23 26 29 32 35 38 41 43 46 49 52 55 58 61 64 67 70 72 75 78 81 84 87 90 93 96 99 101 104 107 110 113 116 119 122 125 128 130 133 136 139 142 145 148 151 154 156 159 162 165 168 171 174 177 180 183 185 188 191 194 197 200 203 206 209 212 214 217 220 223 226 229 232 235 238 241 243 246 249 252 255
0 3 6 9 12 14 17 20 23 26 29 32 35 38 41 43 46 49 52 55 58 61 64 67 70 72 75 78 81 84 87 90 93 96 99 101 104 107 110 113 116 119 122 125 128 130 133 136 139 142 145 148 151 154 156 159 162 165 168 171 174 177 180 183 185 188 191 194 197 200 203 206 209 212 214 217 220 223 226 229 232 235 238 241 243 246 249 252 255
0 3 6 9 12 14 17 20 23 26 29 32 35 38 41 43 46 49 52 55 58 61 64 67 70 72 75 78 81 84 87 90 93 96 99 101 104 107 110 113 116 119 122 125 128 130 133 136 139 142 145 148 151 154 156 159 162 165 168 171 174 177 180 183 185 188 191 194 197 200 203 206 209 212 214 217 220 223 226 229 232 235 238 241 243 246 249 252 255
0 3 6 9 12 14 17 20 23 26 29 32 35 38 41 43 46 49 52 55 58 61 64 67 70 72 75 78 81 84 87 90 93 96 99 101 104 107 110 113 116 119 122 125 128 130 133 136 139 142 145 148 151 154 156 159 162 165 168 171 174 177 180 183 185 188 191 194 197 200 203 206 209 212 214 217 220 223 226 229 232 235 238 241 243 246 249 252 255
0 3 6 9 12 14 17 20 23 26 29 32 35 38 41 43 46 49 52 55 58 61 64 67 70 72 75 78 81 84 87 90 93 96 99 101 104 107 110 113 116 119 122 125 128 130 133 136 139 142 145 148 151 154 156 159 162 165 168 171 174 177 180 183 185 188 191 194 197 200 203 206 209 212 214 217 220 223 226 229 232 235 238 241 243 246 249 252 255
0 3 6 9 12 14 17 20 23 26 29 32 35 38 41 43 46 49 52 55 58 61 64 67 70 72 75 78 81 84 87 90 93 96 99 101 104 107 110 113 116 119 122 125 128 130 133 136 139 142 145 148 151 154 156 159 162 165 168 171 174 177 180 183 185 188 191 194 197 200 203 206 209 212 214 217 220 223 226 229 232 235 238 241 243 246 249 252 255
0 3 6 9 12 14 17 20 23 26 29 32 35 38 41 43 46 49 52 55 58 61 64 67 70 72 75 78 81 84 87 90 93 96 99 101 104 107 110 113 116 119 122 125 128 130 133 136 139 142 145 148 151 154 156 159 162 165 168 171 174 177 180 183 185 188 191 194 197 200 203 206 209 212 214 217 220 223 226 229 232 235 238 241 243 246 249 252 255
0 3 6 9 12 14 17 20 23 26 29 32 35 38 41 43 46 49 52 55 58 61 64 67 70 72 75 78 81 84 87 90 93 96 99 101 104 107 110 113 116 119 122 125 128 130 133 136 139 142 145 148 151 154 156 159 162 165 168 171 174 177 180 183 185 188 191 194 197 200 203 206 209 212 214 217 220 223 226 229 232 235 238 241 243 246 249 252 255
0 3 6 9 12 14 17 20 23 26 29 32 35 38 41 43 46 49 52 55 58 61 64 67 70 72 75 78 81 84 87 90 93 96 99 101 104 107 110 113 116 119 122 125 128 130 133 136 139 142 145 148 151 154 156 159 162 165 168 171 174 177 180 183 185 188 191 194 197 200 203 206 209 212 214 217 220 223 226 229 232 235 238 241 243 246 249 252 255
0 3 6 9 12 14 17 20 23 26 29 32 35 38 41 43 46 49 52 55 58 61 64 67 70 72 75 78 81 84 87 90 93 96 99 101 104 107 110 113 116 119 122 125 128 130 133 136 139 142 145 148 151 154 156 159 162 165 168 171 174 177 180 183 185 188 191 194 197 200 203 206 209 212 214 217 220 223 226 229 232 235 238 241 243 246 249 252 255
0 3 6 9 12 14 17 20 23 26 29 32 35 38 41 43 46 49 52 55 58 61 64 67 70 72 75 78 81 84 87 90 93 96 99 101 104 107 110 113 116 119 122 125 128 130 133 136 139 142 145 148 151 154 156 159 162 165 168 171 174 177 180 183 185 188 191 194 197 200 203 206 209 212 214 217 220 223 226 229 232 235 238 241 243 246 249 252 255
0 3 6 9 12 14 17 20 23 26 29 32 35 38 41 43 46 49 52 55 58 61 64 67 70 72 75 78 81 84 87 90 93 96 99 101 104 107 110 113 116 119 122 125 128 130 133 136 139 142 145 148 151 154 156 159 162 165 168 171 174 177 180 183 185 188 191 194 197 200 203 206 209 212 214 217 220 223 226 229 232 235 238 241 243 246 249 252 255
0 3 6 9 12 14 17 20 23 26 29 32 35 38 41 43 46 49 52 55 58 61 64 67 70 72 75 78 81 84 87 90 93 96 99 101 104 107 110 113 116 119 122 125 128 130 133 136 139 142 145 148 151 154 156 159 162 165 168 171 174 177 180 183 185 188 191 194 197 200 203 206 209 212 214 217 220 223 226 229 232 235 238 241 243 246 249 252 255
0 3 6 9 12 14 17 20 23 26 29 32 35 38 41 43 46 49 52 55 58 61 64 67 70 72 75 78 81 84 87 90 93 96 99 101 104 107 110 113 116 119 122 125 128 130 133 136 139 142 145 148 151 154 156 159 162 165 168 171 174 177 180 183 185 188 191 194 197 200 203 206 209 212 214 217 220 223 226 229 232 235 238 241 243 246 249 252 255
0 3 6 9 12 14 17 20 23 26 29 32 35 38 41 43 46 49 52 55 58 61 64 67 70 72 75 78 81 84 87 90 93 96 99 101 104 107 110 113 116 119 122 125 128 130 133 136 139 142 145 148 151 154 156 159 162 165 168 171 174 177 180 183 185 188 191 194 197 200 203 206 209 212 214 217 220 223 226 229 232 235 238 241 243 246 249 252 255
0 3 6 9 12 14 17 20 23 26 29 32 35 38 41 43 46 49 52 55 58 61 64 67 70 72 75 78 81 84 87 90 93 96 99 101 104 107 110 113 116 119 122 125 128 130 133 136 139 142 145 148 151 154 156 159 162 165 168 171 174 177 180 183 185 188 191 194 197 200 203 206 209 212 214 217 220 223 226 229 232 235 238 241 243 246 249 252 255
0 3 6 9 12 14 17 20 23 26 29 32 35 38 41 43 46 49 52 55 58 61 64 67 70 72 75 78 81 84 87 90 93 96 99 101 104 107 110 113 116 119 122 125 128 130 133 136 139 142 145 148 151 154 156 159 162 165 168 171 174 177 180 183 185 188 191 194 197 200 203 206 209 212 214 217 220 223 226 229 232 235 238 241 243 246 249 252 255
0 3 6 9 12 14 17 20 23 26 29 32 35 38 41 43 46 49 52 55 58 61 64 67 70 72 75 78 81 84 87 90 93 96 99 101 104 107 110 113 116 119 122 125 128 130 133 136 139 142 145 148 151 154 156 159 162 165 168 171 174 177 180 183 185 188 191 194 197 200 203 206 209 212 214 217 220 223 226 229 232 235 238 241 243 246 249 252 255
0 3 6 9 12 14 17 20 23 26 29 32 35 38 41 43 46 49 52 55 58 61 64 67 70 72 75 78 81 84 87 90 93 96 99 101 104 107 110 113 116 119 122 125 128 130 133 136 139 142 145 148 151 154 156 159 162 165 168 171 174 177 180 183 185 188 191 194 197 200 203 206 209 212 214 217 220 223 226 229 232 235 238 241 243 246 249 252 255
0 3 6 9 12 14 17 20 23 26 29 32 35 38 41 43 46 49 52 55 58 61 64 67 70 72 75 78 81 84 87 90 93 96 99 101 104 107 110 113 116 119 122 125 128 130 133 136 139 142 145 148 151 154 156 159 162 165 168 171 174 177 180 183 185 188 191 194 197 200 203 206 209 212 214 217 220 223 226 229 232 235 238 241 243 246 249 252 255
0 3 6 9 12 14 17 20 23 26 29 32 35 38 41 43 46 49 52 55 58 61 64 67 70 72 75 78 81 84 87 90 93 96 99 101 104 107 110 113 116 119 122 125 128 130 133 136 139 142 145 148 151 154 156 159 162 165 168 171 174 177 180 183 185 188 191 194 197 200 203 206 209 212 214 217 220 223 226 229 232 235 238 241 243 246 249 252 255
0 3 6 9 12 14 17 20 23 26 29 32 35 38 41 43 46 49 52 55 58 61 64 67 70 72 75 78 81 84 87 90 93 96 99 101 104 107 110 113 116 119 122 125 128 130 133 136 139 142 145 148 151 154 156 159 162 165 168 171 174 177 180 183 185 188 191 194 197 200 203 206 209 212 214 217 220 223 226 229 232 235 238 241 243 246 249 252 255
0 3 6 9 12 14 17 20 23 26 29 32 35 38 41 43 46 49 52 55 58 61 64 67 70 72 75 78 81 84 87 90 93 96 99 101 104 107 110 113 116 119 122 125 128 130 133 136 139 142 145 148 151 154 156 159 162 165 168 171 174 177 180 183 185 188 191 194 197 200 203 206 209 212 214 217 220 223 226 229 232 235 238 241 243 246 249 252 255
0 3 6 9 12 14 17 20 23 26 29 32 35 38 41 43 46 49 52 55 58 61 64 67 70 72 75 78 81 84 87 90 93 96 99 101 104 107 110 113 116 119 122 125 128 130 133 136 139 142 145 148 151 154 156 159 162 165 168 171 174 177 180 183 185 188 191 194 197 200 203 206 209 212 214 217 220 223 226 229 232 235 238 241 243 246 249 252 255
0 3 6 9 12 14 17 20 23 26 29 32 35 38 41 43 46 49 52 55 58 61 64 67 70 72 75 78 81 84 87 90 93 96 99 101 104 107 110 113 116 119 122 125 128 130 133 136 139 142 145 148 151 154 156 159 162 165 168 171 174 177 180 183 185 188 191 194 197 200 203 206 209 212 214 217 220 223 226 229 232 235 238 241 243 246 249 252 255
0 3 6 9 12 14 17 20 23 26 29 32 35 38 41 43 46 49 52 55 58 61 64 67 70 72 75 78 81 84 87 90 93 96 99 101 104 107 110 113 116 119 122 125 128 130 133 136 139 142 145 148 151 154 156 159 162 165 168 171 174 177 180 183 185 188 191 194 197 200 203 206 209 212 214 217 220 223 226 229 232 235 238 241 243 246 249 252 255
0 3 6 9 12 14 17 20 23 26 29 32 35 38 41 43 46 49 52 55 58 61 64 67 70 72 75 78 81 84 87 90 93 96 99 101 104 107 110 113 116 119 122 125 128 130 133 136 139 142 145 148 151 154 156 159 162 165 168 171 174 177 180 183 185 188 191 194 197 200 203 206 209 212 214 217 220 223 226 229 232 235 238 241 243 246 249 252 255
0 3 6 9 12 14 17 20 23 26 29 32 35 38 41 43 46 49 52 55 58 61 64 67 70 72 75 78 81 84 87 90 93 96 99 101 104 107 110 113 116 119 122 125 128 130 133 136 139 142 145 148 151 154 156 159 162 165 168 171 174 177 180 183 185 188 191 194 197 200 203 206 209 212 214 217 220 223 226 229 232 235 238 241 243 246 249 252 255
0 3 6 9 12 14 17 20 23 26 29 32 35 38 41 43 46 49 52 55 58 61 64 67 70 72 75 78 81 84 87 90 93 96 99 101 104 107 110 113 116 119 122 125 128 130 133 136 139 142 145 148 151 154 156 159 162 165 168 171 174 177 180 183 185 188 191 194 197 200 203 206 209 212 214 217 220 223 226 229 232 235 238 241 243 246 249 252 255
0 3 6 9 12 14 17 20 23 26 29 32 35 38 41 43 46 49 52 55 58 61 64 67 70 72 75 78 81 84 87 90 93 96 99 101 104 107 110 113 116 119 122 125 128 130 133 136 139 142 145 148 151 154 156 159 162 165 168 171 174 177 180 183 185 188 191 194 197 200 203 206 209 212 214 217 220 223 226 229 232 235 238 241 243 246 249 252 255
0 3 6 9 12 14 17 20 23 26 29 32 35 38 41 43 46 49 52 55 58 61 64 67 70 72 75 78 81 84 87 90 93 96 99 101 104 107 110 113 116 119 122 125 128 130 133 136 139 142 145 148 151 154 156 159 162 165 168 171 174 177 180 183 185 188 191 194 197 200 203 206 209 212 214 217 220 223 226 229 232 235 238 241 243 246 249 252 255
0 3 6 9 12 14 17 20 23 26 29 32 35 38 41 43 46 49 52 55 58 61 64 67 70 72 75 78 81 84 87 90 93 96 99 101 104 107 110 113 116 119 122 125 128 130 133 136 139 142 145 148 151 154 156 159 162 165 168 171 174 177 180 183 185 188 191 194 197 200 203 206 209 212 214 217 220 223 226 229 232 235 238 241 243 246 249 252 255
0 3 6 9 12 14 17 20 23 26 29 32 35 38 41 43 46 49 52 55 58 61 64 67 70 72 75 78 81 84 87 90 93 96 99 101 104 107 110 113 116 119 122 125 128 130 133 136 139 142 145 148 151 154 156 159 162 165 168 171 174 177 180 183 185 188 191 194 197 200 203 206 209 212 214 217 220 223 226 229 232 235 238 241 243 246 249 252 255
0 3 6 9 12 14 17 20 23 26 29 32 35 38 41 43 46 49 52 55 58 61 64 67 70 72 75 78 81 84 87 90 93 96 99 101 104 107 110 113 116 119 122 125 128 130 133 136 139 142 145 148 151 154 156 159 162 165 168 171 174 177 180 183 185 188 191 194 197 200 203 206 209 212 214 217 220 223 226 229 232 235 238 241 243 246 249 252 255
0 3 6 9 12 14 17 20 23 26 29 32 35 38 41 43 46 49 52 55 58 61 64 67 70 72 75 78 81 84 87 90 93 96 99 101 104 107 110 113 116 119 122 125 128 130 133 136 139 142 145 148 151 154 156 159 162 165 168 171 174 177 180 183 185 188 191 194 197 200 203 206 209 212 214 217 220 223 226 229 232 235 238 241 243 246 249 252 255
0 3 6 9 12 14 17 20 23 26 29 32 35 38 41 43 46 49 52 55 58 61 64 67 70 72 75 78 81 84 87 90 93 96 99 101 104 107 110 113 116 119 122 125 128 130 133 136 139 142 145 148 151 154 156 159 162 165 168 171 174 177 180 183 185 188 191 194 197 200 203 206 209 212 214 217 220 223 226 229 232 235 238 241 243 246 249 252 255
0 3 6 9 12 14 17 20 23 26 29 32 35 38 41 43 46 49 52 55 58 61 64 67 70 72 75 78 81 84 87 90 93 96 99 101 104 107 110 113 116 119 122 125 128 130 133 136 139 142 145 148 151 154 156 159 162 165 168 171 174 177 180 183 185 188 191 194 197 200 203 206 209 212 214 217 220 223 226 229 232 235 238 241 243 246 249 252 255
0 3 6 9 12 14 17 20 23 26 29 32 35 38 41 43 46 49 52 55 58 61 64 67 70 72 75 78 81 84 87 90 93 96 99 101 104 107 110 113 116 119 122 125 128 130 133 136 139 142 145 148 151 154 156 159 162 165 168 171 174 177 180 183 185 188 191 194 197 200 203 206 209 212 214 217 220 223 226 229 232 235 238 241 243 246 249 252 255
0 3 6 9 12 14 17 20 23 26 29 32 35 38 41 43 46 49 52 55 58 61 64 67 70 72 75 78 81 84 87 90 93 96 99 101 104 107 110 113 116 119 122 125 128 130 133 136 139 142 145 148 151 154 156 159 162 165 168 171 174 177 180 183 185 188 191 194 197 200 203 206 209 212 214 217 220 223 226 229 232 235 238 241 243 246 249 252 255
0 3 6 9 12 14 17 20 23 26 29 32 35 38 41 43 46 49 52 55 58 61 64 67 70 72 75 78 81 84 87 90 93 96 99 101 104 107 110 113 116 119 122 125 128 130 133 136 139 142 145 148 151 154 156 159 162 165 168 171 174 177 180 183 185 188 191 194 197 200 203 206 209 212 214 217 220 223 226 229 232 235 238 241 243 246 249 252 255
0 3 6 9 12 14 17 20 23 26 29 32 35 38 41 43 46 49 52 55 58 61 64 67 70 72 75 78 81 84 87 90 93 96 99 101 104 107 110 113 116 119 122 125 128 130 133 136 139 142 145 148 151 154 156 159 162 165 168 171 174 177 180 183 185 188 191 194 197 200 203 206 209 212 214 217 220 223 226 229 232 235 238 241 243 246 249 252 255
0 3 6 9 12 14 17 20 23 26 29 32 35 38 41 43 46 49 52 55 58 61 64 67 70 72 75 78 81 84 87 90 93 96 99 101 104 107 110 113 116 119 122 125 128 130 133 136 139 142 145 148 151 154 156 159 162 165 168 171 174 177 180 183 185 188 191 194 197 200 203 206 209 212 214 217 220 223 226 229 232 235 238 241 243 246 249 252 255
0 3 6 9 12 14 17 20 23 26 29 32 35 38 41 43 46 49 52 55 58 61 64 67 70 72 75 78 81 84 87 90 93 96 99 101 104 107 110 113 116 119 122 125 128 130 133 136 139 142 145 148 151 154 156 159 162 165 168 171 174 177 180 183 185 188 191 194 197 200 203 206 209 212 214 217 220 223 226 229 232 235 238 241 243 246 249 252 255
0 3 6 9 12 14 17 20 23 26 29 32 35 38 41 43 46 49 52 55 58 61 64 67 70 72 75 78 81 84 87 90 93 96 99 101 104 107 110 113 116 119 122 125 128 130 133 136 139 142 145 148 151 154 156 159 162 165 168 171 174 177 180 183 185 188 191 194 197 200 203 206 209 212 214 217 220 223 226 229 232 235 238 241 243 246 249 252 255
0 3 6 9 12 14 17 20 23 26 29 32 35 38 41 43 46 49 52 55 58 61 64 67 70 72 75 78 81 84 87 90 93 96 99 101 104 107 110 113 116 119 122 125 128 130 133 136 139 142 145 148 151 154 156 159 162 165 168 171 174 177 180 183 185 188 191 194 197 200 203 206 209 212 214 217 220 223 226 229 232 235 238 241 243 246 249 252 255
0 3 6 9 12 14 17 20 23 26 29 32 35 38 41 43 46 49 52 55 58 61 64 67 70 72 75 78 81 84 87 90 93 96 99 101 104 107 110 113 116 119 122 125 128 130 133 136 139 142 145 148 151 154 156 159 162 165 168 171 174 177 180 183 185 188 191 194 197 200 203 206 209 212 214 217 220 223 226 229 232 235 238 241 243 246 249 252 255
0 3 6 9 12 14 17 20 23 26 29 32 35 38 41 43 46 49 52 55 58 61 64 67 70 72 75 78 81 84 87 90 93 96 99 101 104 107 110 113 116 119 122 125 128 130 133 136 139 142 145 148 151 154 156 159 162 165 168 171 174 177 180 183 185 188 191 194 197 200 203 206 209 212 214 217 220 223 226 229 232 235 238 241 243 246 249 252 255
0 3 6 9 12 14 17 20 23 26 29 32 35 38 41 43 46 49 52 55 58 61 64 67 70 72 75 78 81 84 87 90 93 96 99 101 104 107 110 113 116 119 122 125 128 130 133 136 139 142 145 148 151 154 156 159 162 165 168 171 174 177 180 183 185 188 191 194 197 200 203 206 209 212 214 217 220 223 226 229 232 235 238 241 243 246 249 252 255
0 3 6 9 12 14 17 20 23 26 29 32 35 38 41 43 46 49 52 55 58 61 64 67 70 72 75 78 81 84 87 90 93 96 99 101 104 107 110 113 116 119 122 125 128 130 133 136 139 142 145 148 151 154 156 159 162 165 168 171 174 177 180 183 185 188 191 194 197 200 203 206 209 212 214 217 220 223 226 229 232 235 238 241 243 246 249 252 255
0 3 6 9 12 14 17 20 23 26 29 32 35 38 41 43 46 49 52 55 58 61 64 67 70 72 75 78 81 84 87 90 93 96 99 101 104 107 110 113 116 119 122 125 128 130 133 136 139 142 145 148 151 154 156 159 162 165 168 171 174 177 180 183 185 188 191 194 197 200 203 206 209 212 214 217 220 223 226 229 232 235 238 241 243 246 249 252 255
0 3 6 9 12 14 17 20 23 26 29 32 35 38 41 43 46 49 52 55 58 61 64 67 70 72 75 78 81 84 87 90 93 96 99 101 104 107 110 113 116 119 122 125 128 130 133 136 139 142 145 148 151 154 156 159 162 165 168 171 174 177 180 183 185 188 191 194 197 200 203 206 209 212 214 217 220 223 226 229 232 235 238 241 243 246 249 252 255
0 3 6 9 12 14 17 20 23 26 29 32 35 38 41 43 46 49 52 55 58 61 64 67 70 72 75 78 81 84 87 90 93 96 99 101 104 107 110 113 116 119 122 125 128 130 133 136 139 142 145 148 151 154 156 159 162 165 168 171 174 177 180 183 185 188 191 194 197 200 203 206 209 212 214 217 220 223 226 229 232 235 238 241 243 246 249 252 255
0 3 6 9 12 14 17 20 23 26 29 32 35 38 41 43 46 49 52 55 58 61 64 67 70 72 75 78 81 84 87 90 93 96 99 101 104 107 110 113 116 119 122 125 128 130 133 136 139 142 145 148 151 154 156 159 162 165 168 171 174 177 180 183 185 188 191 194 197 200 203 206 209 212 214 217 220 223 226 229 232 235 238 241 243 246 249 252 255
0 3 6 9 12 14 17 20 23 26 29 32 35 38 41 43 46 49 52 55 58 61 64 67 70 72 75 78 81 84 87 90 93 96 99 101 104 107 110 113 116 119 122 125 128 130 133 136 139 142 145 148 151 154 156 159 162 165 168 171 174 177 180 183 185 188 191 194 197 200 203 206 209 212 214 217 220 223 226 229 232 235 238 241 243 246 249 252 255
0 3 6 9 12 14 17 20 23 26 29 32 35 38 41 43 46 49 52 55 58 61 64 67 70 72 75 78 81 84 87 90 93 96 99 101 104 107 110 113 116 119 122 125 128 130 133 136 139 142 145 148 151 154 156 159 162 165 168 171 174 177 180 183 185 188 191 194 197 200 203 206 209 212 214 217 220 223 226 229 232 235 238 241 243 246 249 252 255
0 3 6 9 12 14 17 20 23 26 29 32 35 38 41 43 46 49 52 55 58 61 64 67 70 72 75 78 81 84 87 90 93 96 99 101 104 107 110 113 116 119 122 125 128 130 133 136 139 142 145 148 151 154 156 159 162 165 168 171 174 177 180 183 185 188 191 194 197 200 203 206 209 212 214 217 220 223 226 229 232 235 238 241 243 246 249 252 255
0 3 6 9 12 14 17 20 23 26 29 32 35 38 41 43 46 49 52 55 58 61 64 67 70 72 75 78 81 84 87 90 93 96 99 101 104 107 110 113 116 119 122 125 128 130 133 136 139 142 145 148 151 154 156 159 162 165 168 171 174 177 180 183 185 188 191 194 197 200 203 206 209 212 214 217 220 223 226 229 232 235 238 241 243 246 249 252 255
0 3 6 9 12 14 17 20 23 26 29 32 35 38 41 43 46 49 52 55 58 61 64 67 70 72 75 78 81 84 87 90 93 96 99 101 104 107 110 113 116 119 122 125 128 130 133 136 139 142 145 148 151 154 156 159 162 165 168 171 174 177 180 183 185 188 191 194 197 200 203 206 209 212 214 217 220 223 226 229 232 235 238 241 243 246 249 252 255
0 3 6 9 12 14 17 20 23 26 29 32 35 38 41 43 46 49 52 55 58 61 64 67 70 72 75 78 81 84 87 90 93 96 99 101 104 107 110 113 116 119 122 125 128 130 133 136 139 142 145 148 151 154 156 159 162 165 168 171 174 177 180 183 185 188 191 194 197 200 203 206 209 212 214 217 220 223 226 229 232 235 238 241 243 246 249 252 255
0 3 6 9 12 14 17 20 23 26 29 32 35 38 41 43 46 49 52 55 58 61 64 67 70 72 75 78 81 84 87 90 93 96 99 101 104 107 110 113 116 119 122 125 128 130 133 136 139 142 145 148 151 154 156 159 162 165 168 171 174 177 180 183 185 188 191 194 197 200 203 206 209 212 214 217 220 223 226 229 232 235 238 241 243 246 249 252 255
