P2
# Niblack binarization
89 89
255
0 0 255 255 255 255 0 0 255 255 255 255 255 255 0 0 0 255 0 0 0 0 255 255 0 0 255 0 0 255 0 255 255 255 255 255 0 255 255 255 255 255 255 255 0 255 255 255 255 255 255 255 255 255 255 0 255 255 255 255 255 255 255 0 255 0 255 0 0 255 255 255 255 255 255 255 0 0 0 255 0 255 255 255 0 255 0 0 255 
0 0 255 255 0 0 255 255 0 255 255 255 255 255 255 255 255 255 0 255 255 255 255 0 255 255 255 0 0 0 255 255 0 255 0 0 255 0 255 255 255 0 255 0 255 255 0 255 255 0 0 255 0 255 0 255 255 0 255 255 0 255 255 255 0 255 255 255 255 255 255 255 255 0 255 255 0 255 0 0 255 255 0 255 0 255 255 255 0 
0 255 0 255 255 0 0 255 255 0 255 255 255 0 255 255 255 255 255 255 255 0 255 0 255 255 255 255 0 255 255 255 255 0 0 0 0 255 0 255 255 255 255 0 255 0 255 255 0 0 255 255 255 255 0 0 255 0 0 255 0 255 255 0 0 0 255 255 0 255 0 255 255 0 0 0 0 255 255 255 255 255 255 255 255 255 0 255 255 
255 0 255 255 255 255 0 255 255 255 255 0 255 0 255 255 255 255 255 255 255 0 0 255 255 255 0 0 255 255 0 255 255 0 255 255 255 255 0 255 255 255 255 0 255 255 255 255 0 255 255 255 255 255 0 0 255 255 255 255 255 255 255 255 0 255 0 255 255 255 255 0 255 255 255 255 0 255 255 255 255 255 255 255 0 255 0 0 255 
255 255 0 255 0 0 255 0 255 0 255 255 255 0 0 255 255 0 255 0 255 0 255 255 0 255 0 255 0 255 255 0 255 0 0 255 0 0 255 255 0 255 255 0 255 255 0 0 255 255 0 255 0 255 255 0 255 255 255 255 255 0 255 255 255 255 255 255 0 255 255 255 255 0 255 0 0 255 255 0 255 255 255 255 255 255 0 0 255 
255 0 255 255 255 255 255 255 255 255 255 255 255 0 0 0 255 255 255 0 255 255 0 255 255 255 255 255 255 255 0 0 0 255 255 255 255 255 255 255 255 255 255 255 255 255 0 255 255 255 255 255 255 0 0 0 255 255 0 255 255 255 0 255 255 255 0 255 255 255 255 255 255 255 255 0 255 255 255 255 255 255 255 255 255 255 0 255 255 
0 255 255 255 0 255 255 255 255 255 255 255 0 0 0 255 255 255 255 255 0 255 255 255 255 255 255 0 255 255 255 255 0 255 255 255 255 255 0 255 0 255 255 255 255 0 0 0 255 255 255 255 255 0 0 0 0 0 0 0 0 0 0 0 255 255 255 255 0 255 255 255 255 0 0 255 255 255 0 255 255 255 255 255 255 255 0 255 255 
0 255 0 255 255 255 255 255 0 255 255 255 255 0 255 0 0 255 255 0 255 0 255 255 0 255 255 0 255 255 0 255 255 0 255 0 255 0 255 255 0 255 255 255 0 0 0 255 255 0 0 0 255 255 0 0 255 255 0 255 0 255 255 255 0 0 255 255 255 255 255 255 255 0 0 255 255 255 255 255 0 0 0 255 255 255 0 255 255 
255 0 255 0 255 255 255 255 255 255 0 255 0 0 255 255 255 0 255 255 0 255 255 0 255 255 255 255 255 255 0 0 255 0 255 255 255 255 255 255 0 0 0 255 0 255 255 255 255 255 255 0 255 0 0 255 0 0 255 255 255 0 0 255 255 255 255 255 255 0 255 0 255 0 255 0 255 0 0 255 255 255 255 0 255 0 255 255 0 
255 255 255 255 255 255 0 255 255 0 255 255 0 255 255 255 255 255 255 0 255 0 255 0 0 0 255 255 0 0 0 255 0 255 0 0 255 255 255 255 255 255 255 0 255 255 255 0 255 255 0 255 0 255 0 255 255 255 0 255 255 255 255 255 255 255 255 0 255 255 255 255 0 255 255 0 255 0 255 255 255 0 0 255 255 255 255 0 255 
0 255 0 0 255 0 255 0 255 0 255 255 255 0 255 0 0 0 0 255 255 255 0 255 0 255 255 255 255 255 255 255 255 255 255 255 255 0 255 255 0 255 0 255 255 255 0 255 255 255 255 255 255 255 255 255 255 0 255 255 255 255 255 255 255 0 255 255 255 0 255 255 255 0 0 0 255 0 255 255 255 255 255 0 0 255 255 255 255 
255 255 255 255 255 255 0 255 255 0 255 255 0 255 255 255 255 255 0 255 255 255 255 255 255 0 255 255 0 255 255 255 255 0 255 255 255 255 255 0 255 0 255 255 255 0 255 0 0 255 255 255 0 255 255 255 255 255 255 255 255 255 255 255 0 0 255 255 0 255 255 255 255 255 255 0 0 255 0 0 0 255 0 255 0 255 0 255 255 
255 0 255 0 0 0 255 255 255 255 255 0 0 255 255 255 255 0 0 255 255 0 0 0 255 255 0 0 0 0 255 255 255 0 255 0 255 255 255 255 255 0 255 255 255 0 0 255 0 255 255 255 0 0 255 0 255 255 255 0 0 255 0 0 255 255 255 255 255 255 255 255 0 255 0 255 255 255 255 255 255 255 255 255 255 0 0 0 0 
255 255 255 0 255 255 255 0 0 0 255 255 255 0 255 255 0 255 255 255 255 255 0 0 255 255 255 255 0 255 255 0 255 255 255 255 0 255 255 0 255 255 255 255 0 255 255 255 255 0 255 255 255 0 255 255 0 255 255 255 255 0 255 255 255 0 255 255 255 0 0 0 255 255 0 0 0 255 0 0 0 255 255 255 255 255 255 255 255 
255 255 0 255 255 255 0 255 255 255 255 255 255 0 255 255 255 255 255 0 255 0 0 255 255 0 255 255 0 255 255 0 255 255 255 255 255 0 0 0 0 0 0 0 255 255 0 0 0 255 255 255 255 255 255 255 255 255 255 255 255 255 0 255 255 0 0 0 255 0 255 255 0 0 255 255 255 255 0 255 0 255 0 255 255 255 255 0 255 
0 255 255 0 255 0 255 255 0 255 255 0 0 255 255 0 0 255 0 255 255 255 255 255 0 255 255 255 255 255 0 255 0 255 255 255 255 255 255 255 255 0 255 0 255 255 255 255 255 255 255 0 255 255 0 255 0 0 0 255 255 0 0 255 0 0 255 0 255 255 255 255 255 0 0 0 255 255 0 255 255 255 255 0 255 255 0 255 0 
255 0 255 255 255 255 255 0 0 255 255 255 0 255 0 255 255 255 255 0 255 255 255 255 255 255 255 0 255 255 255 255 255 255 255 0 0 255 0 255 255 0 0 255 255 255 255 255 0 255 0 255 0 255 255 0 255 255 255 255 255 255 255 0 255 255 0 255 255 0 255 255 255 0 255 0 255 255 0 255 255 255 255 255 255 255 255 255 255 
0 255 255 0 255 255 255 0 255 0 0 255 255 255 0 255 255 255 255 255 255 0 255 255 0 255 255 255 255 0 255 0 0 255 255 0 255 0 255 0 255 255 255 255 0 255 0 0 0 255 255 255 255 255 255 0 255 0 255 0 0 0 255 255 255 0 255 255 255 0 255 0 255 0 255 255 0 0 255 255 0 255 255 255 255 0 255 255 255 
255 255 255 255 255 0 255 0 255 0 255 255 255 0 255 255 0 255 255 255 255 255 255 0 0 255 255 0 0 255 255 255 0 0 0 255 255 255 255 0 255 0 255 255 255 255 0 255 255 255 255 0 255 255 255 255 255 255 255 255 255 255 255 0 0 0 255 255 255 255 255 0 0 0 0 255 255 255 255 0 0 0 255 255 255 0 255 0 255 
255 255 0 255 0 0 255 0 0 255 255 255 255 255 255 255 255 255 255 255 255 255 255 0 255 255 255 255 0 255 0 255 0 0 0 255 255 255 255 255 0 0 255 255 255 0 255 0 255 255 0 255 255 255 255 0 0 255 0 255 255 255 0 255 0 255 255 0 255 255 0 255 255 0 255 0 0 255 255 0 255 255 255 255 0 255 255 0 255 
255 0 255 0 255 0 255 0 255 0 0 255 0 0 255 255 255 0 255 255 255 0 255 0 255 255 255 255 0 255 255 255 255 255 255 255 255 0 0 255 255 255 0 255 255 0 255 255 0 0 255 255 0 0 0 255 255 255 255 255 0 0 255 255 255 0 0 0 0 255 255 255 255 255 255 0 255 0 0 255 255 0 0 0 255 0 255 255 0 
0 0 255 0 0 255 0 255 0 255 0 255 255 0 255 0 0 255 255 255 0 0 255 255 255 0 255 255 255 255 0 255 255 0 0 0 255 255 0 255 255 255 0 255 255 0 255 255 0 255 255 0 255 0 255 0 0 255 255 255 0 0 0 0 0 0 255 255 0 255 255 255 255 255 255 255 0 255 255 255 255 0 255 255 0 0 255 255 0 
255 255 255 255 0 255 0 255 0 255 0 255 255 0 0 0 255 255 255 0 0 0 255 255 255 0 0 0 0 255 255 255 255 0 255 255 255 0 0 0 255 255 0 0 255 255 255 255 255 255 255 0 255 255 255 0 255 255 0 255 255 255 0 0 0 255 255 255 0 255 255 0 255 255 0 255 255 255 255 255 255 255 0 0 255 255 255 255 255 
0 255 255 255 255 0 255 0 255 0 255 255 255 255 0 255 0 255 255 255 0 0 255 255 0 0 255 0 255 255 0 0 0 255 0 0 255 0 255 255 255 0 255 255 255 255 255 255 255 255 0 255 255 0 255 255 0 0 255 255 255 0 255 255 0 0 255 0 255 0 255 255 255 0 0 0 255 255 0 0 255 255 255 255 255 255 255 255 0 
255 255 255 255 255 255 0 255 255 0 0 255 255 255 255 0 0 255 255 255 255 0 255 255 255 0 255 255 255 255 0 255 255 255 255 255 255 0 255 255 0 255 0 0 255 255 255 0 255 255 255 255 255 0 255 0 255 255 255 0 255 255 0 0 255 0 255 255 255 255 255 255 255 255 255 255 255 255 255 255 0 255 255 255 255 255 255 255 255 
0 255 255 0 255 0 255 0 255 255 255 255 0 255 255 0 255 0 255 255 255 0 0 255 255 255 255 255 255 0 0 255 0 255 0 255 0 255 255 255 0 255 255 0 255 255 0 0 255 255 255 255 255 0 255 255 255 255 0 255 255 255 255 255 0 255 255 255 0 255 0 255 255 255 0 255 255 255 255 255 255 255 255 0 0 255 0 0 255 
255 255 0 255 255 255 255 255 0 255 0 255 255 0 255 0 255 255 255 255 0 255 0 0 255 255 255 0 255 255 255 255 255 255 255 255 255 255 255 255 0 0 255 255 255 255 0 0 255 0 255 255 255 0 255 0 0 0 255 0 255 255 0 255 255 0 0 255 0 255 0 0 255 255 0 255 255 255 255 0 255 255 0 0 255 255 255 0 255 
0 0 255 255 255 255 255 0 255 255 0 0 255 0 255 255 0 0 255 255 255 255 0 255 255 0 0 255 255 0 255 255 0 255 255 0 255 255 255 255 255 0 255 0 0 255 0 255 255 255 255 255 255 255 255 255 255 255 0 255 255 0 255 255 0 0 255 255 255 255 255 0 255 255 255 255 255 0 255 255 255 255 255 255 255 255 0 255 0 
255 0 0 0 255 0 0 0 255 255 255 255 255 255 255 0 255 255 255 0 255 0 255 0 255 255 255 255 255 0 255 255 0 255 255 255 0 0 255 255 0 255 255 255 255 255 255 0 0 255 0 0 255 0 255 0 255 255 0 255 255 255 255 255 0 255 255 0 255 255 0 255 255 255 255 255 0 0 255 255 0 255 255 255 255 255 0 255 0 
0 255 255 0 255 0 255 0 0 255 255 0 255 255 255 255 255 0 255 255 255 0 255 0 255 255 255 255 0 0 255 255 0 255 255 255 255 0 255 255 0 255 255 255 255 255 255 255 0 255 255 255 255 0 0 255 255 255 255 0 0 255 255 255 255 0 255 255 255 255 255 255 0 0 255 0 255 255 255 0 0 255 255 255 0 255 255 255 0 
255 0 255 0 255 255 0 255 0 255 255 255 0 0 0 255 0 255 255 255 255 0 255 0 255 255 0 255 255 255 255 0 0 255 255 0 255 255 255 0 0 255 255 255 255 0 255 255 0 0 0 255 0 255 255 255 255 255 0 0 255 255 255 0 255 255 255 255 0 255 255 255 255 0 255 255 255 255 255 255 255 255 255 0 0 255 0 0 255 
255 255 0 255 255 0 255 0 0 255 255 0 0 0 255 255 255 255 0 255 255 0 255 255 255 255 255 255 255 255 0 0 255 255 255 0 0 255 255 255 0 255 0 255 255 255 255 255 255 255 0 255 255 255 255 0 0 255 255 0 255 255 255 0 0 0 0 255 0 255 0 255 255 255 0 0 0 255 255 255 255 255 0 255 0 255 255 255 255 
255 255 255 0 0 255 0 255 255 255 0 255 0 255 0 0 0 0 0 255 255 0 255 255 0 255 255 255 0 0 0 255 255 0 255 255 255 0 0 255 0 255 255 255 0 255 255 255 0 0 255 255 0 255 255 255 255 255 0 255 255 0 255 0 255 255 255 255 255 0 255 255 255 0 0 0 255 255 0 0 255 255 255 255 255 0 0 0 255 
255 255 255 255 0 255 0 255 255 255 255 255 255 255 255 0 0 255 0 255 255 0 0 255 255 255 255 255 255 0 255 255 0 0 255 255 255 255 255 255 255 255 255 255 255 255 255 255 255 255 255 0 255 255 255 255 255 255 255 255 255 0 255 0 255 255 0 255 255 255 0 0 255 255 0 0 0 255 0 255 255 255 255 0 255 0 255 255 255 
0 255 255 255 255 255 255 255 255 255 255 255 255 255 255 255 255 255 255 0 255 0 255 0 255 255 255 0 255 0 255 255 255 255 255 255 255 255 255 255 255 255 255 255 255 255 255 255 0 0 255 255 0 255 255 255 255 255 255 255 255 255 255 255 255 255 0 255 0 255 255 0 255 255 255 255 0 255 255 255 255 0 0 255 0 255 0 0 255 
255 0 255 255 255 255 255 255 255 255 255 255 255 255 0 255 255 255 0 0 255 255 255 255 0 255 0 255 255 255 255 255 255 255 0 255 255 255 255 255 255 255 255 255 255 255 255 255 255 255 0 255 0 255 0 255 255 255 255 255 255 255 0 255 0 0 255 255 255 255 255 255 255 255 255 0 255 255 0 255 255 255 255 255 255 255 255 0 255 
0 255 255 255 255 255 255 255 255 255 255 255 255 255 255 255 0 0 255 255 255 0 0 255 255 255 0 255 255 255 255 255 255 255 255 255 255 255 255 255 255 255 255 255 255 255 255 0 255 255 0 255 255 255 255 255 255 255 0 255 255 255 0 255 255 255 0 0 255 255 255 255 255 255 255 255 255 255 255 0 255 255 255 255 0 0 255 0 255 
0 255 255 255 255 0 255 0 255 0 255 0 255 255 255 255 255 0 255 0 0 255 255 255 255 255 255 255 0 255 0 255 255 255 255 255 255 255 255 255 255 255 255 255 255 255 255 255 255 255 255 255 255 0 255 0 255 255 255 255 255 255 0 255 0 0 255 255 255 255 255 0 255 255 255 0 0 255 255 255 0 255 255 255 0 0 0 0 255 
255 255 255 255 255 255 0 0 255 255 255 0 255 255 255 255 0 0 255 255 0 0 255 0 255 255 255 0 255 255 255 255 255 255 255 255 255 0 255 0 0 0 0 0 0 0 255 0 0 255 0 255 255 255 255 255 255 0 255 0 255 0 0 255 255 255 0 255 255 255 0 255 255 255 0 0 255 0 255 0 0 255 0 255 0 0 255 255 0 
0 255 255 0 0 255 0 255 0 255 255 255 255 255 0 0 0 0 0 0 255 255 255 0 255 255 255 255 255 255 255 0 0 0 0 0 0 0 0 255 0 0 0 0 0 0 0 0 0 0 0 0 0 255 255 255 255 255 255 255 255 255 255 255 255 255 255 255 255 0 255 255 0 255 0 0 255 0 255 255 0 0 255 255 255 255 255 255 0 
255 255 0 0 0 255 255 255 0 255 255 255 0 0 0 0 255 255 255 0 255 0 255 255 0 255 255 255 255 255 0 0 0 0 0 0 0 0 0 0 0 0 0 0 0 0 0 0 0 0 0 0 0 0 0 255 0 255 255 0 0 0 255 255 255 255 0 0 255 255 255 255 0 255 0 255 255 0 255 255 255 255 255 0 255 255 255 255 255 
255 0 0 0 255 0 255 255 255 255 255 0 0 255 255 255 255 255 0 255 255 0 255 0 255 255 255 0 255 0 0 0 0 0 0 0 0 0 0 0 0 0 0 0 0 0 0 0 0 0 0 0 0 0 0 255 255 255 255 255 255 255 255 255 0 255 255 255 255 255 255 0 255 255 255 0 0 255 0 0 0 255 0 255 255 255 0 255 255 
0 0 255 0 255 255 255 255 255 255 255 255 255 255 0 0 255 0 0 0 255 0 0 255 255 255 255 255 255 0 0 0 0 0 0 0 0 255 0 0 0 0 0 255 0 0 0 0 0 0 0 0 0 0 0 0 0 255 255 255 255 255 255 255 255 255 255 255 255 0 255 0 0 255 255 255 255 0 255 0 0 0 255 0 255 255 255 255 255 
255 255 255 0 0 0 255 255 255 255 0 255 255 0 255 0 255 255 255 255 255 255 255 255 255 255 0 255 255 0 0 0 0 255 0 0 0 0 0 0 0 0 0 0 0 0 0 0 0 0 0 255 0 0 0 0 0 0 255 255 255 255 255 255 255 0 255 0 255 255 255 0 0 0 0 0 255 255 255 255 255 0 0 255 255 255 255 0 255 
0 255 0 0 255 0 255 255 0 255 255 255 0 255 255 255 0 255 255 255 255 255 255 0 255 255 255 255 255 0 0 0 0 0 0 0 0 0 255 255 255 0 0 0 0 0 0 255 0 0 0 255 0 255 0 0 255 0 255 255 255 255 255 255 255 255 255 0 255 0 255 255 0 255 255 0 255 0 255 255 255 0 255 0 0 255 0 255 0 
255 255 0 0 255 0 0 255 255 0 255 255 255 255 255 255 255 0 0 0 255 0 255 0 255 255 255 255 255 255 0 255 0 0 0 0 255 255 255 255 255 255 255 0 255 255 0 0 0 0 0 255 0 0 0 0 0 255 255 255 255 255 255 255 255 255 255 255 0 0 0 255 255 0 255 0 255 255 255 0 255 255 255 255 255 255 255 255 255 
0 255 255 255 255 255 0 255 255 255 255 0 0 255 0 0 255 255 0 0 255 255 255 0 255 255 255 0 255 0 0 0 0 255 255 255 255 255 255 255 255 255 255 255 255 255 255 255 0 0 255 0 0 0 255 255 0 0 255 0 255 255 0 255 255 255 255 0 255 255 255 255 255 0 0 0 0 255 255 255 255 255 255 255 255 255 255 255 255 
0 0 0 255 255 0 255 0 255 0 0 255 255 0 0 0 255 255 0 0 0 255 255 255 255 255 255 255 255 0 0 255 255 255 255 255 255 255 255 255 255 255 255 255 255 255 255 255 255 0 0 0 0 0 0 0 0 0 0 0 255 255 255 255 255 0 0 255 0 255 255 255 255 255 255 255 255 255 0 255 255 255 0 255 255 0 255 255 0 
255 255 0 255 0 255 255 255 255 255 0 255 255 0 255 255 255 255 0 255 0 255 0 0 255 255 255 255 255 255 255 255 255 255 255 255 0 255 255 255 255 255 255 255 255 255 255 255 255 0 255 255 0 0 0 0 0 0 0 0 255 255 255 0 255 255 0 0 0 255 0 0 0 255 255 255 255 255 255 255 255 255 255 255 255 0 255 255 0 
255 0 255 255 0 0 255 0 255 255 255 255 255 255 255 255 255 255 255 255 0 255 255 255 255 255 255 255 255 255 255 255 255 255 255 255 255 255 255 255 255 255 255 255 255 255 255 255 255 255 0 0 0 0 0 0 0 0 0 0 255 255 0 255 255 255 255 255 255 255 255 0 255 0 0 255 255 0 0 255 255 0 255 255 0 255 0 255 255 
255 255 255 0 255 255 255 255 255 255 255 255 255 255 255 0 255 0 0 255 255 0 255 255 255 255 255 255 255 255 255 255 255 255 255 255 255 255 255 255 255 255 255 255 255 255 255 255 255 0 255 255 0 0 0 0 0 0 0 0 255 255 255 255 255 255 255 0 0 0 255 255 0 255 0 0 0 255 0 0 0 255 0 255 255 0 255 255 0 
255 0 0 255 0 255 0 255 255 255 0 255 255 255 255 0 0 255 255 255 255 255 255 0 255 255 255 255 255 255 255 255 255 255 255 255 0 255 255 0 0 0 0 0 0 0 0 0 0 0 0 255 255 0 0 0 0 0 255 255 255 255 255 255 255 255 255 0 255 255 0 0 255 0 0 255 255 0 255 255 0 255 255 255 255 255 255 0 255 
255 0 0 0 255 0 0 255 0 0 255 255 255 255 0 255 255 255 255 255 255 255 0 255 255 255 255 255 255 255 255 255 0 0 0 0 0 0 0 0 0 0 0 0 0 0 0 0 255 0 255 0 0 0 255 0 0 0 0 0 255 255 255 0 255 0 0 0 255 255 255 255 0 255 0 255 255 255 255 255 255 255 255 255 255 255 255 255 0 
255 255 255 255 255 0 0 255 0 255 255 0 255 255 0 0 255 0 255 0 255 0 255 255 0 255 255 255 255 0 255 0 0 0 0 0 0 0 0 0 0 0 0 0 0 0 0 0 0 0 0 0 0 255 255 0 0 0 0 0 255 255 255 255 255 0 255 0 0 0 0 255 255 255 0 0 255 0 255 255 255 0 255 255 255 0 255 0 255 
255 0 0 255 255 255 0 255 255 255 255 0 0 0 255 255 255 255 255 0 255 255 255 255 255 255 255 255 255 255 0 0 0 0 0 0 0 0 0 0 255 0 0 0 0 0 0 0 0 0 0 255 255 0 0 255 0 255 0 0 255 255 255 0 0 255 255 255 255 255 0 255 0 255 255 255 255 0 0 255 255 255 255 255 255 0 0 255 255 
0 255 0 0 255 255 255 0 255 255 255 255 255 255 255 255 255 0 0 255 255 0 255 255 255 0 255 255 255 0 0 0 0 0 0 255 0 0 0 0 0 0 0 0 0 255 0 0 0 0 0 0 0 0 255 0 255 255 0 255 255 255 255 255 255 255 255 0 0 255 255 255 255 0 255 255 255 255 255 0 255 255 255 255 0 255 0 0 255 
0 0 0 0 0 255 0 255 255 0 0 255 0 255 0 255 0 0 255 0 255 0 255 0 0 255 255 255 0 0 0 0 0 0 0 255 0 0 255 0 0 255 255 0 0 0 0 0 0 0 255 255 0 255 0 255 255 0 0 0 255 255 255 255 255 0 0 0 255 0 0 255 255 255 255 0 255 255 255 255 255 0 0 255 255 255 255 255 0 
0 0 0 0 0 0 0 255 255 255 255 255 0 255 255 255 0 255 255 255 255 255 255 255 255 255 0 255 0 0 0 0 0 0 0 0 0 0 0 0 255 255 255 255 255 255 255 255 255 255 0 0 0 0 0 0 0 255 0 0 255 255 255 255 255 255 255 0 255 255 255 255 0 255 0 255 255 255 255 255 0 0 255 255 255 0 255 255 0 
255 255 255 255 255 255 255 0 255 255 255 255 255 255 255 255 255 255 255 0 255 255 255 255 255 255 0 0 0 0 0 0 0 0 255 0 0 255 255 255 255 255 255 255 255 255 255 255 255 0 255 0 0 0 255 0 0 0 0 0 255 255 255 255 255 255 255 255 255 255 255 255 255 255 255 255 255 255 0 255 255 255 0 255 255 255 255 0 255 
255 255 255 255 255 255 255 255 0 255 255 0 255 255 0 255 255 255 255 255 255 255 255 255 255 255 255 0 0 0 0 0 0 0 0 255 0 255 255 255 255 255 255 255 255 255 255 255 255 0 0 0 0 0 0 255 0 255 0 255 255 255 255 255 255 255 255 0 0 255 0 255 255 255 0 255 255 255 255 0 0 255 255 0 255 0 255 255 255 
255 255 255 255 255 255 0 255 255 0 255 255 255 255 255 0 255 0 0 255 255 255 255 255 255 255 255 0 0 0 0 0 255 0 0 0 0 255 255 255 255 255 255 255 255 255 255 255 255 255 0 255 255 255 0 0 0 0 0 0 255 255 255 255 255 255 255 255 0 255 255 255 255 255 255 255 255 255 255 0 0 255 255 0 0 0 0 255 0 
255 255 255 255 255 255 255 255 255 0 0 255 255 255 255 255 255 255 255 255 255 255 255 255 0 255 255 0 0 255 0 0 0 0 0 0 0 255 255 255 255 255 255 255 255 255 255 255 255 0 0 0 255 0 255 255 255 0 0 0 255 255 255 255 255 255 255 255 255 0 0 0 255 0 0 255 255 0 255 0 0 255 255 255 0 255 0 0 0 
255 255 0 255 255 255 0 0 0 255 0 0 255 255 255 0 255 255 255 0 255 0 255 0 255 255 0 0 0 0 0 0 0 255 255 0 0 255 255 255 255 255 255 255 255 255 255 255 0 0 0 0 0 0 0 0 0 0 0 0 255 255 255 0 255 255 255 255 0 255 255 255 255 255 255 0 255 255 0 0 0 255 0 255 0 255 0 255 255 
255 0 0 255 0 255 255 0 255 0 255 255 255 255 255 255 255 255 0 255 255 255 255 255 255 255 0 0 0 0 0 255 0 0 0 0 255 0 255 255 255 255 255 255 255 255 255 0 0 0 0 0 0 0 0 0 0 0 0 0 255 255 255 255 255 255 255 0 255 255 255 255 255 255 0 0 255 255 255 255 255 0 255 255 255 255 255 255 255 
255 0 255 255 255 255 255 0 0 0 0 255 255 255 0 255 0 255 0 255 255 255 255 255 255 255 255 0 0 0 0 0 0 0 0 255 255 0 255 255 255 255 255 255 255 255 0 0 0 0 0 0 0 0 0 0 0 0 0 0 255 255 255 255 255 0 0 0 255 255 255 255 255 255 255 255 255 0 255 255 0 0 255 0 255 255 255 0 0 
255 255 255 255 255 255 255 0 255 0 0 255 0 255 0 255 0 255 0 255 255 0 255 0 255 255 255 0 0 0 0 255 255 0 0 0 0 255 255 0 255 255 255 255 0 0 0 0 0 0 0 0 0 0 0 0 255 0 0 255 255 255 255 255 255 255 255 255 255 0 0 255 255 255 0 255 255 0 255 255 255 0 255 0 255 255 255 255 255 
0 255 255 255 255 255 255 255 255 0 255 255 0 255 255 255 255 0 0 255 255 255 255 255 255 255 255 255 0 0 0 0 0 255 0 0 255 0 0 255 0 0 0 0 0 0 0 0 0 0 0 0 0 0 0 0 0 0 0 0 255 255 255 255 255 255 255 255 255 0 0 0 255 255 0 255 0 0 255 255 0 0 255 255 0 255 0 255 0 
0 0 255 255 0 255 0 255 255 255 255 255 0 255 0 255 0 255 0 255 255 255 255 255 255 255 255 255 0 0 0 0 0 0 0 0 0 0 0 0 0 0 0 0 0 0 0 0 0 255 0 0 0 0 0 255 0 0 0 0 255 255 255 255 255 0 0 0 255 255 255 255 0 255 0 0 255 255 255 0 0 0 255 255 255 255 255 255 255 
255 255 255 255 255 255 0 0 255 0 0 255 255 255 255 0 255 0 0 255 0 255 255 255 255 255 255 255 0 0 0 255 0 0 0 0 0 0 0 0 0 255 0 0 0 0 0 0 255 0 0 0 255 0 0 0 0 0 0 0 255 255 255 255 255 255 255 255 255 0 255 255 0 0 255 255 0 255 255 0 0 255 255 255 255 255 255 0 0 
255 255 255 255 255 255 255 255 255 255 255 0 255 0 0 255 255 255 255 0 0 0 255 255 255 255 255 255 255 0 0 0 0 0 0 0 0 0 0 0 0 0 0 0 0 0 0 255 255 255 0 0 0 0 255 0 0 0 0 0 255 255 255 255 255 255 255 255 255 0 255 255 255 0 255 0 255 255 0 255 255 255 0 255 0 255 255 255 0 
0 0 255 255 255 255 255 255 0 0 0 255 255 0 255 255 0 255 0 255 255 255 255 255 255 255 255 255 255 255 0 0 0 0 0 0 0 0 0 0 0 0 0 0 0 0 255 255 255 0 0 0 0 0 0 0 0 0 0 0 255 255 255 255 0 255 255 255 0 255 0 0 255 0 255 0 0 255 0 0 0 255 255 255 0 255 255 255 255 
255 255 0 0 0 255 255 255 0 255 255 255 255 0 255 0 0 255 255 255 255 255 255 0 255 255 255 255 255 255 255 255 0 255 0 0 0 0 0 0 0 0 0 0 255 255 255 255 255 0 0 0 0 0 0 0 0 0 0 0 255 255 255 255 255 0 255 255 255 255 255 255 255 255 255 0 0 255 255 0 0 0 255 255 0 0 0 255 255 
0 0 255 0 0 0 255 0 0 255 255 255 0 0 255 0 0 0 255 0 255 255 255 255 255 0 255 255 255 255 255 255 255 255 0 0 0 0 0 0 0 0 255 255 255 255 255 255 255 255 255 255 255 255 255 255 255 255 255 255 255 255 255 255 255 255 0 0 0 255 255 255 255 255 255 0 255 255 0 255 255 0 255 255 255 0 255 255 255 
0 255 255 255 255 255 0 255 0 255 0 255 255 0 255 0 255 0 0 0 255 255 0 255 0 255 0 255 255 0 255 255 255 255 255 255 255 255 255 255 255 255 255 255 255 255 255 255 255 255 255 255 255 255 255 255 255 0 255 255 255 255 255 255 0 255 255 255 0 255 0 0 255 0 255 255 255 0 255 255 0 255 0 255 0 0 255 255 255 
255 255 255 255 255 0 0 255 255 255 0 0 0 255 0 255 255 255 255 0 255 255 255 0 255 255 255 255 255 255 255 255 255 255 255 255 255 255 255 255 255 0 255 255 255 255 255 255 255 255 0 255 255 255 255 255 255 255 255 255 0 255 0 0 255 255 255 255 255 0 0 0 255 255 0 255 255 255 255 0 0 0 255 255 255 255 255 255 255 
255 255 0 255 255 0 255 255 255 255 255 255 0 255 0 255 0 255 255 255 255 0 0 255 255 255 0 255 255 255 255 0 255 255 255 255 255 255 255 255 255 255 255 255 255 255 255 255 255 255 255 255 255 255 255 255 255 255 255 255 255 255 255 255 0 255 255 255 255 255 255 255 255 255 0 255 255 255 255 255 255 0 255 0 255 255 255 255 255 
255 255 255 0 255 0 255 255 0 255 255 255 255 255 0 255 255 0 255 255 0 255 255 255 0 255 0 255 255 255 255 255 255 255 255 255 255 255 255 255 255 0 255 255 255 255 255 255 255 255 255 255 255 255 255 255 255 255 255 255 255 255 255 0 255 255 255 255 0 255 0 255 255 0 0 255 0 0 255 255 255 255 255 255 0 255 255 255 255 
255 255 255 255 255 255 255 0 255 255 255 0 255 0 0 255 255 255 0 255 255 255 0 255 0 255 255 255 0 255 255 255 0 255 255 255 255 255 255 255 255 255 255 255 0 255 255 0 255 255 0 0 255 255 255 255 0 255 255 0 255 255 255 255 255 255 255 0 255 255 255 255 255 0 0 255 255 255 0 255 255 255 0 0 0 255 255 255 255 
0 0 255 255 255 255 0 255 255 0 255 255 0 255 255 0 0 255 255 255 255 255 255 255 0 255 255 255 0 255 255 0 255 0 255 0 255 0 255 255 0 255 0 0 255 0 0 255 255 255 255 0 0 255 255 255 0 255 255 255 0 255 0 255 0 0 255 0 255 0 255 255 0 0 0 0 0 255 0 255 255 255 255 0 0 255 255 255 255 
255 255 255 0 255 255 0 255 255 255 255 255 255 255 255 0 255 255 0 0 0 255 255 0 255 255 255 255 0 255 255 0 255 0 0 0 255 255 255 255 255 255 255 0 255 255 255 255 255 255 0 255 255 255 255 255 255 255 255 255 255 0 255 255 0 255 0 255 0 0 0 255 255 255 0 255 255 0 255 0 0 0 255 0 255 255 0 255 255 
0 255 255 0 255 0 255 0 255 0 255 255 255 0 0 255 0 255 0 255 0 255 255 0 255 255 0 0 0 255 255 255 255 255 0 255 255 0 255 0 255 255 255 255 255 255 255 0 255 255 0 0 255 255 255 0 255 255 255 255 255 255 0 255 255 0 255 255 0 255 0 255 255 255 255 255 0 255 255 255 255 255 255 255 0 255 0 255 255 
255 0 0 255 0 0 0 0 0 255 255 255 255 255 255 255 0 255 255 255 255 0 255 255 255 255 255 255 255 255 255 255 0 255 255 0 255 0 0 0 255 255 0 255 255 255 255 255 255 255 255 255 255 255 255 255 0 0 255 255 0 255 0 0 0 255 0 255 255 255 0 0 0 255 255 0 255 255 0 255 255 0 255 255 0 255 0 0 255 
255 255 255 255 255 0 0 0 0 0 255 0 255 0 255 255 255 255 255 255 0 255 255 255 255 255 255 0 255 255 255 0 255 255 255 255 255 255 255 255 0 255 0 255 0 0 255 255 255 255 255 255 255 255 255 0 0 255 255 255 0 255 0 255 255 0 255 0 255 255 0 255 255 0 0 255 0 255 0 255 0 255 255 255 255 255 255 255 255 
255 0 255 255 255 255 255 255 0 0 255 255 255 255 0 255 255 255 255 255 255 255 0 255 255 255 255 255 255 255 255 255 255 255 0 0 255 0 0 0 255 255 255 0 255 255 255 255 0 0 255 0 255 255 255 255 255 255 255 0 255 0 255 0 255 0 255 0 255 255 255 255 0 0 255 0 255 255 255 255 255 255 255 255 255 255 0 255 255 
255 255 255 255 0 255 255 0 255 0 0 0 255 0 255 255 255 0 255 0 255 255 255 0 255 255 0 0 0 255 255 255 255 255 0 0 255 0 255 0 255 255 255 255 255 255 255 0 255 255 0 255 255 255 255 0 0 255 255 0 255 255 255 255 255 255 0 0 0 255 255 0 255 255 255 255 255 255 0 255 255 0 0 0 255 0 255 0 255 
255 255 255 255 0 0 0 255 255 0 255 255 255 0 0 255 255 255 0 255 0 0 255 255 255 0 255 255 255 255 255 255 255 255 255 0 255 0 255 0 0 255 255 255 255 0 255 255 255 0 255 255 255 0 0 255 255 255 255 0 0 255 255 255 0 255 255 0 0 255 255 255 255 255 255 0 255 255 255 0 255 255 255 0 255 255 255 255 255 
0 0 0 255 0 255 255 0 255 255 255 255 255 255 0 255 255 0 255 0 0 0 255 0 0 255 255 255 0 0 0 255 0 255 0 0 255 255 0 0 255 255 255 255 255 255 0 255 255 255 255 255 255 0 255 255 255 0 255 255 255 255 0 0 255 255 255 0 255 255 255 255 255 255 255 255 0 0 0 255 255 0 255 255 0 255 255 255 255 
255 0 0 0 0 0 255 255 255 255 255 255 0 255 255 0 255 255 255 255 255 0 255 0 0 255 0 255 255 0 0 0 255 255 255 255 255 255 255 255 255 255 255 0 255 0 255 255 255 0 255 255 0 0 255 0 0 255 255 0 255 255 255 0 255 0 255 255 255 255 255 255 255 255 255 255 0 0 255 0 255 0 255 255 0 0 255 255 255 
0 0 0 0 255 255 0 0 0 255 0 255 255 255 255 0 255 0 255 255 255 255 255 255 255 0 255 0 255 0 255 255 255 255 255 0 0 255 0 255 0 255 255 255 255 0 255 255 0 255 255 0 0 0 255 255 255 255 0 255 0 0 255 0 0 255 255 0 0 255 255 0 0 255 0 0 255 255 0 255 255 255 255 255 0 255 0 0 0 
