P2
# Texto manuscrito 'sol' com ruído
89 89
255
255 255 255 255 255 243 255 255 244 241 244 255 255 255 255 255 255 247 255 255 255 255 244 255 251 255 248 255 255 254 251 255 255 255 255 248 253 255 241 241 255 255 230 255 250 234 242 255 251 255 255 255 255 255 253 242 255 255 249 240 243 255 252 255 255 251 246 255 255 249 250 255 255 255 255 254 255 252 255 255 249 255 250 255 255 255 255 255 255
253 255 255 255 248 243 221 251 249 248 255 255 255 253 255 255 254 246 255 255 255 255 252 255 249 252 255 255 255 255 248 255 233 249 255 252 255 247 255 255 247 255 250 255 246 255 245 248 255 255 249 251 248 255 253 242 255 239 255 241 247 255 255 236 247 241 239 255 255 255 247 255 255 252 255 255 255 255 255 251 240 255 255 248 255 240 255 255 255
255 255 246 235 255 241 255 233 254 240 248 243 249 252 255 247 245 255 253 253 255 255 246 248 255 253 255 255 242 248 231 255 255 249 253 250 225 255 252 242 247 255 250 255 241 254 255 255 255 255 255 255 255 255 233 247 240 252 255 247 255 246 255 235 255 253 255 241 255 250 244 245 252 255 255 255 234 246 251 254 255 243 249 243 244 255 255 250 255
252 255 249 255 250 255 255 254 240 255 255 255 255 253 253 254 255 248 255 239 255 242 255 247 255 255 245 255 245 255 247 255 255 255 255 255 238 252 255 245 249 255 255 234 253 255 245 255 251 255 242 255 248 253 254 253 255 243 255 255 255 255 255 253 251 255 255 255 255 255 255 249 255 248 251 237 252 248 255 255 255 246 242 255 250 255 254 255 255
252 229 255 233 246 251 246 255 249 246 254 255 250 255 255 255 249 243 246 246 254 236 244 255 243 255 255 238 242 236 247 255 245 251 255 255 255 247 243 255 255 255 253 252 255 255 255 255 239 255 237 255 255 255 255 255 251 255 250 245 247 255 255 255 250 255 255 255 255 252 240 243 242 255 252 255 248 251 255 255 239 255 240 255 255 255 255 241 252
255 255 247 255 255 255 255 255 255 253 255 237 255 251 255 255 255 245 255 255 255 250 238 255 251 255 255 255 254 235 253 243 244 255 245 255 255 242 255 255 255 255 252 255 251 255 248 255 250 255 255 235 255 250 236 255 246 255 252 252 250 255 237 221 255 242 255 250 255 255 255 255 255 232 255 255 238 254 255 255 255 248 255 252 255 255 255 252 252
255 255 246 254 255 255 255 254 255 242 252 255 253 248 255 255 240 245 255 255 255 254 255 252 249 251 255 255 255 239 255 255 244 251 251 255 255 252 238 255 255 248 255 253 252 254 255 250 255 255 251 250 255 248 255 255 244 247 250 250 242 243 255 255 249 255 246 226 255 244 255 252 253 250 255 248 255 251 252 255 247 246 237 255 255 255 255 255 255
251 255 255 255 245 247 255 237 221 252 255 255 245 255 251 255 238 255 255 255 255 255 255 255 255 255 251 242 250 252 248 252 250 255 251 244 255 255 255 255 255 250 251 255 254 255 252 255 255 225 253 254 255 240 243 255 246 248 252 252 245 255 255 255 241 253 255 255 243 249 255 255 255 236 255 248 255 255 255 255 255 255 242 250 251 255 232 240 252
246 247 254 255 246 251 255 255 255 255 253 255 255 255 255 254 251 246 235 246 253 253 255 255 251 237 255 255 245 242 251 255 253 255 252 255 252 255 255 255 248 251 249 251 255 255 239 241 255 237 241 246 255 255 255 255 255 248 255 248 255 252 239 240 255 255 255 252 255 255 255 255 255 255 253 255 250 245 255 254 242 255 255 255 255 255 255 255 238
255 252 252 255 255 255 253 253 249 255 255 255 255 251 255 246 252 255 255 244 255 252 252 249 255 255 255 255 255 255 255 250 251 255 245 253 255 251 242 250 250 254 249 255 250 237 255 255 255 255 255 255 253 255 251 246 244 250 255 251 255 255 255 234 255 255 249 255 255 255 245 255 255 255 246 255 255 241 230 255 244 251 250 255 250 239 252 223 255
235 252 255 254 255 255 252 253 255 255 247 255 249 249 254 255 255 255 255 252 255 255 255 255 255 255 255 251 255 249 255 255 255 255 255 247 251 255 255 252 249 255 251 255 255 240 243 255 255 255 234 248 255 255 255 252 255 255 252 247 250 255 249 254 255 255 255 243 254 255 236 252 253 244 255 255 249 249 251 250 255 255 253 255 255 255 255 251 233
255 240 255 253 244 242 250 249 255 255 255 255 255 252 255 248 231 255 249 249 255 234 255 253 255 249 255 251 255 255 244 255 255 255 255 249 255 250 255 255 255 249 240 248 255 249 255 255 255 255 255 250 255 255 255 250 255 254 236 255 255 255 255 252 255 255 252 255 255 255 255 255 251 249 245 242 255 255 255 255 255 253 245 254 249 255 251 255 255
253 245 255 255 249 247 255 250 244 255 255 241 255 255 255 244 248 255 247 255 255 255 255 249 255 233 255 255 255 247 250 255 255 252 255 255 245 255 249 255 255 255 255 255 250 250 243 252 255 248 234 255 253 255 255 244 255 255 255 249 248 254 246 255 250 255 249 249 255 255 249 255 252 228 245 255 254 255 255 255 255 255 255 255 255 244 252 242 255
249 254 255 255 255 247 255 246 255 255 255 255 255 255 247 255 255 255 255 245 255 248 247 252 251 252 237 255 252 255 255 245 252 251 251 253 255 253 255 255 255 242 255 249 255 255 248 255 246 246 255 248 255 236 253 255 255 246 255 240 255 249 255 255 248 255 252 252 255 253 245 253 233 255 255 254 255 237 255 246 239 249 255 255 255 249 255 237 252
250 248 255 255 247 243 255 254 251 255 255 255 255 255 246 255 237 248 255 255 255 255 255 254 255 247 255 252 247 245 255 255 255 255 255 255 254 243 235 255 255 255 255 251 253 255 255 255 249 248 240 237 255 248 255 255 254 250 255 255 255 255 254 255 240 255 247 255 241 255 255 253 253 254 240 255 255 255 255 255 255 255 255 255 245 251 255 254 255
255 255 242 255 255 255 255 255 252 255 246 252 255 255 255 246 246 252 255 255 255 255 255 255 250 255 255 242 255 255 245 242 255 239 253 254 255 253 255 251 255 255 252 254 255 241 255 248 246 255 255 255 255 244 255 255 255 249 253 255 255 241 255 255 255 255 255 249 255 248 255 255 250 237 252 242 245 255 255 253 252 255 255 255 251 255 246 249 244
238 255 245 255 255 246 238 251 255 249 244 247 255 237 248 255 252 255 255 236 247 255 255 255 255 255 246 255 254 251 248 248 255 255 235 247 255 239 255 255 255 250 255 238 247 255 241 255 246 252 255 255 250 243 252 255 254 255 252 255 255 255 251 249 255 255 255 255 255 255 251 255 255 247 255 252 255 248 255 248 248 255 253 255 255 242 246 253 238
255 255 255 245 255 252 255 255 255 255 255 255 255 249 255 254 255 252 255 255 234 249 255 255 255 255 255 250 249 255 255 255 255 251 237 250 255 255 245 238 249 247 244 255 255 255 255 253 255 255 255 255 254 251 255 255 255 250 249 255 255 254 255 241 255 255 255 255 245 255 255 251 246 255 248 244 255 255 255 255 255 252 244 252 255 247 250 246 233
253 235 246 236 255 255 255 250 255 238 254 250 255 255 244 245 243 255 240 255 255 255 255 249 253 255 255 246 255 255 239 255 255 254 242 255 255 243 255 255 243 255 220 252 252 255 255 236 251 255 255 255 236 255 250 255 255 251 255 243 245 251 255 247 255 255 246 255 250 253 255 255 255 255 244 255 248 254 255 232 248 255 255 255 250 255 251 255 240
249 242 252 248 255 255 255 255 255 255 251 255 255 255 249 255 255 255 255 250 255 255 255 255 255 255 255 244 254 244 244 245 248 237 255 251 255 255 255 255 237 255 255 252 255 243 247 255 255 255 255 255 249 252 255 243 251 255 255 255 254 255 255 255 241 255 245 255 255 252 246 255 255 254 251 243 255 252 251 255 241 245 244 255 255 254 255 255 238
255 255 246 255 255 255 255 255 228 255 246 255 255 235 241 255 244 255 255 233 255 247 254 238 255 253 255 233 252 255 255 250 255 232 255 241 255 252 255 242 255 255 250 255 249 255 255 255 255 255 255 255 248 249 255 255 254 255 255 255 252 238 255 255 254 255 255 249 252 237 255 255 255 249 255 255 255 233 255 249 255 244 236 255 253 249 249 255 255
255 254 250 255 253 234 255 255 237 236 244 255 255 247 249 246 255 255 255 238 254 255 243 242 255 255 244 246 255 255 249 255 249 253 255 255 254 255 246 255 246 248 235 255 255 255 255 250 248 255 253 247 255 255 255 255 249 252 254 255 254 243 247 253 244 255 255 248 255 255 255 248 255 255 247 255 243 255 252 252 255 252 255 248 243 255 254 253 253
242 251 255 255 246 236 255 255 255 255 236 255 253 255 245 255 255 255 255 255 251 247 255 250 255 255 255 255 245 226 255 255 255 251 255 254 255 255 255 255 245 255 255 241 255 255 255 255 242 252 253 250 255 254 255 253 249 255 242 255 236 250 255 255 251 255 255 240 234 231 241 254 249 250 255 255 255 255 242 253 255 237 255 255 253 245 255 230 255
251 255 250 255 252 255 255 255 253 255 241 255 255 255 255 255 255 241 255 251 255 248 242 255 255 255 239 241 255 252 238 255 255 254 255 255 255 249 255 254 247 255 248 247 255 255 255 255 255 234 234 255 253 253 255 255 255 249 251 253 252 255 255 255 252 255 250 249 255 255 243 246 250 255 238 255 254 255 255 255 255 255 255 246 241 240 255 255 255
253 254 255 255 250 255 251 247 255 255 255 255 253 255 255 253 252 255 255 255 255 255 255 252 249 255 250 238 247 246 255 250 248 246 255 255 242 255 255 240 255 255 255 239 244 255 248 247 255 255 255 255 240 248 254 255 255 243 244 238 255 255 255 255 248 254 250 255 255 255 255 255 255 246 246 255 249 245 255 255 251 250 245 246 255 252 255 244 255
255 255 255 255 255 255 243 255 255 250 255 255 255 255 245 255 255 255 255 255 244 238 255 255 255 247 255 244 255 244 253 255 247 255 244 255 255 255 249 244 255 255 244 255 253 255 255 255 255 249 255 255 232 255 253 255 255 255 255 255 250 232 255 249 255 237 255 253 249 255 245 248 255 255 255 255 238 255 240 251 255 255 255 255 244 255 255 255 244
255 255 255 255 248 255 255 255 255 255 247 255 255 244 254 254 252 255 255 243 235 242 255 255 238 245 253 255 253 248 255 255 255 251 255 255 253 241 248 255 255 255 252 249 242 255 250 241 255 255 251 255 253 254 255 250 255 255 255 254 251 255 255 255 255 255 254 255 237 255 255 241 253 249 255 249 255 253 253 254 255 250 237 232 237 251 246 255 255
253 255 244 255 230 255 255 255 248 248 235 241 255 255 254 248 247 252 255 254 251 251 245 255 245 245 244 255 248 249 255 255 246 255 252 255 255 255 255 251 243 255 246 255 255 251 255 255 250 255 255 251 255 255 253 255 255 255 255 255 238 255 246 253 253 243 240 254 250 251 253 255 255 255 255 255 255 251 255 251 255 255 255 255 250 249 246 245 240
255 252 255 243 255 255 255 241 255 255 255 247 255 255 255 250 240 255 246 255 246 252 248 236 255 246 255 255 248 255 255 250 255 241 255 246 255 247 244 243 255 255 255 247 255 255 255 241 255 245 249 255 245 255 255 251 254 255 255 251 242 249 252 255 255 244 242 255 255 255 255 239 244 243 255 255 251 237 249 255 255 255 246 255 255 255 255 242 252
254 255 255 255 247 244 248 255 254 251 244 255 252 254 245 255 255 250 239 255 245 255 236 255 244 243 255 233 255 255 255 255 243 255 242 255 255 255 252 246 253 255 255 254 252 255 253 249 244 244 255 254 255 255 253 255 250 241 247 255 251 249 252 250 255 255 255 255 241 255 247 249 242 255 255 253 254 255 255 253 250 255 244 255 255 246 255 255 249
255 255 255 255 245 255 250 255 242 244 251 255 255 255 248 255 250 251 251 255 252 255 248 244 252 247 255 255 255 255 255 255 233 255 249 255 251 255 255 255 232 255 255 255 255 253 255 253 250 246 255 252 246 239 255 255 255 255 242 255 237 255 255 254 244 255 255 244 255 229 255 252 251 254 248 255 242 253 248 255 249 255 253 255 255 246 236 250 255
254 255 255 250 255 246 255 255 243 226 253 247 255 255 255 255 247 255 255 254 248 251 239 255 255 242 255 240 255 255 243 254 255 252 255 255 255 240 255 253 248 255 255 255 252 245 250 253 242 255 255 252 246 255 254 244 255 255 255 247 239 255 254 252 255 254 255 255 250 255 246 251 255 253 248 253 249 251 255 249 255 244 241 248 250 248 255 244 255
255 255 254 255 255 254 255 252 249 255 243 249 255 255 255 252 253 255 255 255 238 255 255 255 255 255 244 254 255 255 255 248 255 254 255 249 246 255 255 249 255 255 241 230 254 253 255 250 255 255 255 244 240 255 255 255 241 236 255 255 248 249 240 252 255 255 250 246 255 253 253 255 249 243 254 244 255 252 255 253 245 252 252 253 241 255 244 255 255
239 255 255 254 255 255 255 252 244 255 237 255 255 247 255 252 255 255 255 250 245 251 255 244 255 249 255 236 252 255 255 250 255 255 255 255 255 252 239 253 255 248 255 255 255 248 249 246 234 255 255 255 248 255 239 235 235 255 248 252 254 255 254 255 250 248 243 246 249 255 255 250 245 255 246 255 255 255 255 255 238 242 255 246 255 254 255 252 255
250 255 248 255 255 255 253 255 248 252 232 241 250 255 249 254 255 255 251 250 255 249 241 255 255 252 255 247 243 244 245 241 255 248 253 255 255 255 250 244 252 255 255 253 250 255 250 255 255 255 255 251 244 244 255 250 254 255 237 255 251 241 254 250 253 253 248 255 255 240 255 255 255 255 255 255 249 245 241 252 255 255 254 252 245 248 248 242 255
255 255 249 255 254 237 228 255 245 243 255 255 238 255 255 255 250 255 255 244 255 255 248 255 252 253 242 249 255 241 255 248 242 241 255 245 238 255 254 255 255 255 245 240 255 253 255 255 255 247 255 250 255 255 252 236 251 246 255 248 248 247 241 245 254 251 238 241 242 255 255 249 255 255 252 255 231 255 255 253 255 249 244 251 255 249 255 245 255
250 255 233 254 245 250 250 251 255 244 255 255 255 255 249 255 255 253 255 249 245 232 255 255 255 241 255 250 255 243 255 255 255 245 255 255 244 255 255 255 255 255 255 255 255 249 255 252 255 255 255 255 253 247 255 252 252 255 239 245 238 254 234 255 249 255 255 255 252 252 255 247 251 255 249 240 253 255 248 249 253 249 255 255 255 255 255 241 255
255 255 255 254 255 251 241 250 255 255 242 255 254 255 255 245 255 255 246 246 255 255 255 255 255 255 249 255 255 230 255 241 255 255 255 255 255 244 255 255 251 255 254 255 255 255 255 255 255 252 255 235 255 255 228 255 255 255 255 255 253 255 244 255 243 255 255 254 255 244 241 246 240 250 254 255 242 255 255 248 251 255 255 252 255 255 255 255 255
244 255 253 252 255 253 255 255 252 250 244 255 255 255 255 245 255 255 255 254 240 255 235 253 254 255 243 248 238 255 255 255 250 255 255 255 255 255 255 255 255 255 255 255 255 244 250 255 255 255 255 255 253 255 249 255 253 255 255 252 250 255 255 255 255 255 255 246 255 255 245 252 249 255 252 246 255 255 255 238 255 255 253 255 237 255 253 255 245
252 252 252 255 250 229 255 253 255 253 255 255 253 251 247 239 255 246 232 245 255 250 247 255 252 255 237 248 247 255 255 255 255 255 255 249 250 252 255 253 236 236 255 239 255 246 255 255 255 249 255 253 241 251 240 3 66 255 250 255 255 240 255 255 255 255 254 255 255 255 247 251 255 255 248 250 239 255 252 254 255 255 255 255 255 255 255 253 255
255 237 255 255 255 255 235 242 253 249 255 255 253 255 255 255 237 255 248 255 255 254 254 247 255 255 255 243 255 255 243 254 255 255 255 250 233 247 250 255 255 255 255 247 254 255 255 247 255 249 253 255 255 251 233 0 87 255 249 247 246 255 255 251 255 255 250 255 255 255 240 253 255 243 245 255 255 246 255 253 252 249 241 255 255 255 248 234 246
248 255 255 255 251 248 252 232 245 246 255 250 248 255 247 255 255 255 246 249 255 255 244 255 243 255 255 255 254 248 255 255 255 249 249 246 253 255 255 255 255 255 246 250 248 255 255 255 241 255 238 254 244 255 240 0 68 255 247 255 247 238 243 255 255 255 250 255 243 255 246 255 255 253 255 253 248 255 254 235 253 255 255 252 247 255 251 255 255
254 255 255 255 247 255 246 251 255 250 253 226 251 244 234 250 255 255 247 253 248 255 255 235 254 243 251 255 255 255 255 253 254 251 255 255 255 255 231 247 255 237 255 239 255 255 255 255 246 254 255 244 248 255 223 4 69 255 248 255 255 245 253 251 242 244 238 255 255 255 255 254 255 255 252 254 247 254 235 255 252 255 255 255 255 254 255 245 246
255 255 255 255 255 246 252 250 254 254 255 255 255 255 244 255 252 255 255 255 255 255 252 243 255 255 255 252 255 246 255 247 189 68 24 0 41 94 208 255 255 239 255 175 47 16 1 49 113 255 255 255 240 240 228 12 70 255 255 246 255 255 255 250 249 255 253 255 251 247 255 255 255 254 255 237 255 244 255 255 255 255 250 253 255 238 255 234 251
255 255 255 255 244 245 255 255 255 255 247 255 255 255 244 244 254 255 241 255 255 246 255 254 254 255 255 255 255 246 255 169 0 12 0 0 0 5 24 246 255 247 117 0 0 15 0 0 1 72 249 255 254 255 224 3 82 238 240 253 244 255 255 245 255 255 255 247 243 249 239 255 255 255 255 255 255 255 255 252 248 247 255 254 249 250 255 255 250
255 249 243 255 255 255 236 235 255 255 255 252 255 255 255 255 255 247 255 253 249 255 255 246 251 255 254 253 255 252 240 72 0 134 239 255 204 143 71 253 247 185 2 3 141 223 237 165 4 2 125 251 255 251 220 4 83 255 255 255 255 239 246 255 246 255 253 245 255 255 255 254 252 255 255 255 255 249 255 253 255 237 255 255 244 255 255 251 239
253 255 255 254 254 255 251 255 255 243 255 255 255 255 255 255 252 244 242 242 255 250 254 255 254 255 255 255 246 255 255 47 5 253 255 249 255 255 255 245 255 93 7 125 255 255 254 255 173 5 34 255 240 255 234 3 90 255 250 254 255 242 250 255 246 235 240 255 242 250 255 255 255 255 255 255 248 252 245 252 255 232 248 243 233 246 240 251 242
255 255 255 255 255 255 255 250 247 248 249 254 246 241 255 247 254 255 254 254 248 255 248 253 255 254 233 255 255 255 254 143 7 70 175 239 255 255 251 240 255 34 0 210 255 241 255 235 236 9 0 239 245 237 223 4 77 246 255 247 255 255 255 255 240 255 255 240 255 238 255 254 255 255 249 244 255 251 255 255 255 255 255 255 235 255 255 253 229
250 255 248 246 252 255 255 254 243 255 247 255 246 255 255 246 243 254 255 255 255 252 255 255 255 255 254 255 255 251 245 254 184 54 0 0 38 128 250 254 255 15 11 242 253 253 255 254 249 53 17 203 255 254 245 0 71 255 255 250 251 254 252 255 249 255 255 253 255 255 255 250 254 255 251 253 255 250 245 255 252 236 245 243 255 255 249 255 254
255 255 255 253 255 255 255 255 237 255 245 249 255 255 248 246 253 255 255 255 246 251 255 246 253 255 247 255 253 250 255 243 245 248 246 194 126 20 36 245 255 37 2 227 255 255 250 255 249 23 1 228 239 255 221 0 70 255 255 245 255 255 255 251 254 241 255 245 255 255 255 255 244 255 239 255 255 255 248 255 243 255 239 249 255 255 252 255 245
255 255 255 255 243 255 255 255 237 255 255 255 255 240 255 255 239 253 249 243 255 255 244 254 250 252 252 255 255 249 244 255 255 248 255 241 246 134 10 154 255 94 0 124 254 245 250 251 172 6 24 255 236 247 227 1 89 255 255 255 255 255 255 255 248 255 244 255 253 247 253 255 250 243 255 234 255 255 255 255 255 255 255 246 255 243 252 255 255
231 249 255 255 248 243 244 247 240 255 255 255 255 255 255 255 255 255 233 239 243 251 255 246 255 254 255 255 255 255 242 58 139 201 231 240 206 56 8 164 255 182 4 2 142 232 216 181 15 7 133 255 250 255 220 0 82 255 255 242 255 251 255 248 241 253 255 255 245 247 247 255 239 254 255 255 255 255 251 255 253 255 244 255 255 255 255 251 255
253 255 251 240 255 244 255 240 255 255 252 255 255 255 255 245 234 255 255 251 252 245 251 247 255 255 255 255 255 252 255 23 6 0 2 8 0 0 22 238 255 247 108 0 0 0 4 16 0 64 233 254 255 218 217 0 70 250 255 247 255 255 255 255 253 255 255 255 255 255 255 255 248 255 255 255 255 255 255 242 255 255 255 237 234 255 255 255 246
255 237 255 255 255 242 255 255 248 255 255 255 255 255 255 255 238 255 255 255 255 252 255 239 255 254 241 255 244 252 250 218 130 52 7 18 44 118 219 255 255 255 245 160 54 12 2 40 142 248 241 247 255 254 223 2 78 255 249 244 249 247 248 255 245 252 239 255 253 252 255 255 255 255 236 255 255 250 250 253 248 255 255 254 255 255 255 252 238
255 240 242 245 255 248 253 253 254 231 255 255 255 255 237 244 255 252 255 255 255 255 255 255 232 249 252 255 255 255 248 249 249 255 255 255 255 255 249 255 255 255 255 255 255 255 241 255 253 255 255 255 255 255 241 229 247 250 251 248 255 250 248 255 255 251 248 255 255 252 243 255 246 255 255 250 255 254 251 242 251 245 255 253 255 255 239 255 255
255 255 255 255 255 255 240 243 251 255 245 249 252 255 253 255 250 255 255 255 248 245 255 245 255 255 255 248 254 254 246 255 255 255 255 255 255 251 255 255 247 247 247 255 255 255 255 254 249 253 253 249 255 255 255 255 253 241 246 251 255 248 255 248 255 255 255 250 255 255 245 255 255 246 247 255 255 253 249 255 239 255 255 247 248 255 255 255 254
255 255 255 247 255 255 255 255 255 252 255 255 255 255 252 250 255 243 251 255 255 255 255 255 233 251 235 255 255 255 237 253 250 255 247 246 255 255 255 255 255 255 255 255 255 255 255 250 253 255 255 255 255 251 255 250 255 255 255 244 249 243 252 255 255 255 248 241 255 231 255 255 246 238 255 237 255 255 255 255 247 255 252 255 241 255 255 253 237
255 255 251 252 255 249 246 255 248 246 233 252 255 255 255 248 255 255 249 255 244 245 255 255 253 253 255 255 251 255 255 255 248 233 255 255 254 255 250 255 238 243 251 251 255 236 255 255 252 255 255 255 255 255 247 255 246 239 249 255 254 248 255 255 255 235 255 242 246 255 249 241 242 242 255 245 255 245 243 254 255 235 252 253 255 249 255 248 255
250 254 255 245 255 255 246 255 255 240 246 252 255 243 255 250 255 250 255 248 255 251 255 255 250 252 255 255 255 246 255 248 255 255 247 255 255 248 255 255 252 253 255 255 250 233 255 251 243 250 255 252 255 255 248 248 243 255 255 255 255 248 235 255 255 255 248 240 253 255 255 247 252 236 252 255 255 255 255 255 255 255 247 255 255 255 253 248 255
245 251 255 255 244 255 255 255 255 255 247 255 255 255 250 255 253 255 255 255 245 255 250 246 255 255 255 255 255 255 252 238 255 249 246 255 255 249 255 255 255 253 255 243 249 255 255 255 255 255 255 254 255 255 249 255 255 236 255 229 255 255 255 245 241 251 250 247 255 255 251 247 251 255 255 246 255 255 243 235 255 243 255 242 255 239 241 251 255
255 255 255 255 255 255 255 252 236 244 243 255 255 245 245 255 255 251 247 244 255 255 238 243 255 255 255 255 244 255 255 255 253 255 255 255 252 252 255 255 248 244 255 255 255 243 245 236 255 255 255 255 247 255 255 255 246 247 245 255 246 255 255 255 255 255 255 255 252 255 255 255 255 231 252 250 255 255 255 248 255 255 250 251 255 255 255 253 255
255 255 243 255 229 255 255 249 242 255 255 255 249 255 243 227 255 255 255 253 253 255 247 255 255 239 254 244 255 248 255 255 255 255 247 231 252 243 255 254 235 252 255 255 248 253 255 244 244 255 255 255 255 255 250 255 255 255 255 255 255 255 244 255 255 253 254 255 255 255 253 255 252 255 255 255 250 248 255 240 236 245 255 253 255 255 242 255 244
255 251 247 243 255 255 246 255 245 255 255 253 247 255 255 251 255 248 255 255 242 255 252 247 255 251 255 247 248 251 255 255 255 255 255 253 255 255 249 255 255 251 245 249 231 244 255 255 248 255 255 238 255 255 246 228 255 255 252 250 255 255 250 255 253 255 231 255 252 255 248 255 255 255 249 243 243 255 255 237 255 255 255 253 255 255 251 255 255
255 255 236 255 255 255 250 253 247 241 247 255 255 255 252 250 255 255 252 242 255 247 253 246 254 247 252 255 255 253 255 235 243 255 255 255 240 243 255 248 255 254 251 251 238 255 247 250 249 255 255 255 255 255 255 243 243 255 255 255 239 255 255 255 255 254 241 255 235 255 245 255 238 242 251 251 243 249 255 251 255 255 254 242 248 243 254 238 255
255 255 255 255 255 255 255 255 255 255 255 255 255 253 250 250 255 237 253 245 246 253 254 255 255 255 247 253 255 253 251 255 255 251 245 242 240 255 255 255 255 244 252 242 249 251 251 255 242 255 243 255 255 255 255 255 255 253 240 255 255 255 255 248 252 246 245 253 255 251 249 255 255 252 250 254 248 247 255 255 241 250 249 244 255 255 253 255 255
255 255 249 252 255 252 255 233 255 254 255 255 248 254 255 255 241 252 253 255 226 234 238 255 255 243 255 255 255 253 255 251 255 255 255 255 248 237 255 253 248 255 251 249 249 255 255 255 247 255 255 251 255 255 247 248 255 246 255 249 248 255 255 245 241 247 255 251 255 255 247 255 255 255 255 246 255 255 236 255 255 240 255 244 252 244 250 255 253
255 251 241 243 255 255 255 241 249 255 251 248 255 255 255 234 252 255 255 255 251 233 229 249 250 251 255 255 251 255 247 255 255 253 241 255 241 249 255 254 243 255 255 252 255 255 255 250 251 245 252 255 253 255 239 239 250 249 255 244 255 254 255 245 249 255 255 255 255 255 251 254 255 255 248 255 255 253 255 239 247 255 253 246 251 255 255 252 250
255 255 255 245 236 255 254 244 255 242 239 255 255 251 255 255 255 255 240 247 255 247 255 255 255 255 255 255 243 240 234 250 255 255 252 249 242 255 255 255 245 233 255 255 255 247 255 255 255 255 255 250 255 255 255 255 255 253 255 247 255 255 252 255 246 255 255 255 235 255 234 255 255 255 255 255 255 255 251 255 254 247 245 255 255 238 255 244 250
255 255 245 240 247 255 255 244 251 255 247 255 222 231 254 248 254 236 255 255 255 247 255 238 250 255 255 254 255 255 255 253 254 243 255 255 251 240 255 239 240 255 241 254 250 252 246 255 252 246 255 251 247 253 246 250 255 251 247 255 246 255 255 248 255 255 255 255 255 253 255 255 248 247 253 232 255 255 251 255 255 255 255 251 243 246 255 255 248
255 249 245 255 255 255 255 255 255 249 252 255 255 255 255 255 245 216 255 241 234 255 255 255 255 255 247 251 255 242 241 255 255 255 247 255 255 255 255 253 255 255 248 240 255 241 255 249 234 255 255 244 236 255 255 255 247 255 255 255 254 246 255 251 248 242 255 255 255 241 252 255 246 253 251 255 255 229 255 254 255 255 243 255 255 255 255 251 239
255 255 244 255 242 255 255 255 255 246 255 255 255 255 255 255 255 255 250 255 234 250 255 255 245 247 248 245 255 254 242 244 255 255 255 255 255 255 247 241 255 234 255 247 247 243 255 255 245 255 255 255 246 245 254 245 239 251 255 255 239 253 255 255 255 252 245 246 255 255 255 250 255 255 247 255 255 255 255 255 255 250 255 245 255 255 250 252 252
247 243 255 255 255 251 235 255 253 255 255 254 249 252 246 252 255 254 251 255 251 251 247 244 255 251 246 248 252 253 247 255 255 241 255 255 252 238 255 255 255 255 255 245 252 250 255 249 245 252 255 255 255 228 255 255 255 250 255 250 252 251 243 255 255 255 255 254 255 255 251 255 255 255 249 255 242 255 255 255 255 255 239 255 250 255 255 246 252
255 255 255 252 255 255 255 239 255 253 255 255 255 246 255 255 251 255 245 234 255 255 255 239 255 232 255 255 255 255 255 244 255 237 254 255 255 255 249 255 248 255 255 249 255 255 248 236 255 255 255 238 255 255 252 255 255 248 255 253 255 255 252 255 250 251 255 255 255 255 255 251 254 255 246 255 243 253 242 253 255 255 254 255 255 255 240 255 255
249 255 255 255 255 255 239 246 255 253 255 240 255 248 255 248 247 248 250 255 244 255 255 255 254 255 244 251 243 246 251 243 255 255 251 255 255 255 255 255 253 255 255 250 244 250 248 255 255 253 234 245 243 242 255 255 250 250 248 245 255 253 255 255 239 240 255 243 255 251 244 255 247 255 255 255 255 246 255 255 254 242 245 251 245 255 255 250 248
255 234 244 255 255 251 250 255 253 248 244 255 255 251 255 255 255 250 246 255 252 255 237 255 255 255 254 255 255 247 255 255 255 248 252 244 255 255 241 255 251 255 255 255 251 255 255 239 255 255 252 255 255 255 255 249 255 255 255 255 246 255 255 253 255 255 249 255 255 255 241 249 255 255 245 247 247 239 249 245 253 243 255 255 255 255 251 240 255
242 255 247 251 240 255 241 255 255 255 255 246 255 255 255 255 244 254 255 249 239 255 255 244 255 240 238 255 246 247 255 255 250 255 240 250 255 252 251 255 239 255 244 248 236 242 255 255 255 255 255 255 254 238 244 255 241 255 249 255 255 255 255 254 255 255 255 255 245 255 250 252 254 248 255 248 255 255 255 254 255 253 254 255 255 242 255 242 255
221 255 255 255 255 246 242 254 255 254 255 252 255 255 255 254 254 252 251 247 255 252 255 255 245 247 252 251 255 239 248 253 255 250 250 247 255 255 255 252 253 250 252 245 255 255 246 245 255 255 255 253 254 255 250 253 255 255 244 253 255 253 255 250 255 247 248 216 255 255 255 255 251 252 246 255 255 255 249 254 248 244 255 255 255 255 255 244 255
255 255 255 246 255 248 253 248 255 255 248 255 250 234 250 251 255 255 253 254 255 249 237 255 255 254 255 255 247 255 251 252 245 255 248 252 246 255 248 255 255 255 250 254 253 255 248 252 255 255 246 249 255 255 255 254 251 255 255 240 235 255 252 255 255 255 253 248 255 243 250 245 255 255 255 255 239 249 250 255 255 255 250 255 255 241 255 255 251
255 255 250 249 255 255 255 255 253 255 255 255 251 255 255 252 255 255 254 255 255 247 243 253 255 233 254 255 255 250 251 255 234 253 255 247 255 255 245 255 232 255 255 254 245 233 255 255 255 255 255 254 255 254 248 255 255 255 233 252 250 244 252 255 238 255 255 247 243 240 255 243 255 240 245 255 241 255 247 255 255 255 254 255 255 255 247 255 255
250 255 249 234 252 255 249 253 252 245 255 247 241 255 255 255 244 248 242 255 253 247 246 250 235 255 244 253 255 255 250 255 255 231 255 245 247 249 255 252 251 255 255 250 247 229 255 255 255 248 254 255 247 255 255 255 243 239 255 242 253 246 250 255 255 249 255 252 255 255 255 255 255 255 255 255 255 252 255 255 245 231 245 255 254 255 255 255 255
241 250 255 250 250 255 255 255 255 255 255 248 246 255 252 253 255 255 255 255 255 255 255 255 255 255 255 255 253 255 255 255 255 255 255 255 252 255 255 255 255 255 255 233 255 255 255 255 247 255 233 255 247 255 251 255 254 255 254 246 247 249 255 252 255 239 244 255 255 255 255 255 255 247 255 255 255 255 255 255 255 255 255 254 237 255 255 244 255
253 244 255 255 255 251 242 251 255 245 255 246 244 233 255 250 240 250 250 255 248 248 255 241 255 249 255 255 255 249 253 255 255 255 250 234 255 255 255 245 242 247 255 253 248 255 255 243 253 254 248 252 255 255 251 250 255 255 255 252 255 255 254 255 255 240 255 255 255 255 255 253 255 255 255 247 241 250 252 255 246 255 247 255 252 247 255 255 253
255 239 255 255 255 241 245 240 247 255 255 255 255 247 255 246 255 252 255 255 247 255 255 255 255 255 255 255 255 245 255 255 250 246 255 255 255 255 255 255 255 255 255 253 250 254 244 254 248 253 255 235 246 240 245 255 244 253 255 234 251 255 255 255 239 255 248 255 248 236 255 255 238 255 248 248 255 255 251 255 255 255 255 255 255 255 240 255 255
252 241 253 234 255 255 246 255 255 245 245 255 251 254 251 255 255 252 255 255 245 255 253 255 255 249 255 247 255 255 250 255 255 255 255 255 255 255 255 255 255 246 254 255 254 255 253 244 255 255 251 248 254 246 255 247 255 253 254 254 251 249 255 255 243 247 248 255 248 239 252 255 249 251 252 255 250 230 255 255 255 255 254 255 253 255 248 255 253
240 255 254 251 229 243 242 255 242 255 255 250 249 237 255 248 255 251 255 255 255 255 250 255 249 255 244 255 255 255 242 253 248 255 255 253 244 249 255 255 253 255 255 255 251 253 255 245 255 255 255 247 249 255 255 255 255 255 255 255 255 255 253 243 255 255 255 254 250 255 247 252 249 255 242 255 248 255 255 249 255 254 255 255 255 235 252 255 252
255 248 255 242 245 247 255 240 255 241 253 255 255 255 255 245 255 255 255 255 255 255 243 255 235 255 255 236 255 255 250 255 255 254 255 255 246 255 251 246 242 232 255 249 244 237 255 236 250 255 255 251 248 242 254 255 250 249 255 252 250 254 253 250 249 255 243 255 255 255 250 249 255 247 255 253 255 247 255 255 250 255 255 254 255 249 254 255 255
255 251 245 250 255 246 255 255 255 255 255 251 228 255 255 255 255 255 252 255 248 255 255 240 255 231 240 255 253 255 255 243 251 247 254 246 255 255 255 255 255 255 255 255 255 255 255 255 237 252 249 255 247 251 251 255 255 235 255 232 244 250 252 254 255 255 255 255 255 255 255 251 228 246 242 253 255 255 251 250 235 253 255 255 232 241 255 243 255
240 248 255 255 251 255 250 255 255 245 255 248 255 255 250 235 248 255 255 255 255 255 255 249 255 255 253 255 255 255 255 251 243 248 255 245 254 255 248 255 247 249 253 252 253 247 255 252 255 255 255 255 245 249 255 255 240 255 255 246 246 247 255 255 254 254 250 255 255 255 252 255 251 255 255 255 253 255 252 255 255 247 237 255 255 253 253 255 252
246 253 242 255 255 246 255 255 242 252 255 254 249 248 243 248 255 255 255 255 255 255 238 250 255 245 245 248 254 230 255 244 251 255 255 253 254 254 254 244 255 255 250 255 252 255 255 255 253 247 245 245 255 250 255 255 255 244 249 255 245 252 255 255 250 255 255 255 255 255 245 246 254 254 255 255 241 255 252 255 248 255 255 246 240 247 255 255 255